<?xml version="1.0" standalone="no"?>
<!DOCTYPE svg PUBLIC "-//W3C//DTD SVG 1.1//EN" "http://www.w3.org/Graphics/SVG/1.1/DTD/svg11.dtd" >
<svg xmlns="http://www.w3.org/2000/svg">
<metadata>Generated by IcoMoon</metadata>
<defs>
<font id="icomoon" horiz-adv-x="1024">
<font-face units-per-em="1024" ascent="960" descent="-64" />
<missing-glyph horiz-adv-x="1024" />
<glyph unicode="&#x20;" horiz-adv-x="512" d="" />
<glyph unicode="&#xe900;" glyph-name="document-file-php" d="M672 128v-64.082c0-35.408-28.617-63.918-63.918-63.918h-480.165c-35.408 0-63.918 28.759-63.918 64.235v735.531c0 35.488 28.776 64.235 64.273 64.235h319.727v-192.061c0-35.565 28.739-63.939 64.189-63.939h159.811v-64h-287.781c-53.14 0-96.219-42.952-96.219-95.961v-224.078c0-52.998 42.752-95.961 96.219-95.961h287.781zM480 864v-191.906c0-17.725 14.431-32.094 31.705-32.094h160.295l-192 224zM383.826 512h544.348c34.951 0 63.826-28.539 63.826-63.745v-224.511c0-34.939-28.576-63.745-63.826-63.745h-544.348c-34.951 0-63.826 28.539-63.826 63.745v224.511c0 34.939 28.576 63.745 63.826 63.745zM384 384v-160h32v96h63.844c35.432 0 64.156 28.407 64.156 64 0 35.346-28.605 64-64.156 64h-95.844v-64zM416 416v-64h64.033c17.655 0 31.967 14.204 31.967 32 0 17.673-14.165 32-31.967 32h-64.033zM704 352h-96v96h-32v-224h32v96h96v-96h32v224h-32v-96zM768 384v-160h32v96h63.844c35.432 0 64.156 28.407 64.156 64 0 35.346-28.605 64-64.156 64h-95.844v-64zM800 416v-64h64.033c17.655 0 31.967 14.204 31.967 32 0 17.673-14.165 32-31.967 32h-64.033z" />
<glyph unicode="&#xe901;" glyph-name="document-file-php1" d="M672 544v96l-192 224h-351.912c-35.395 0-64.088-28.747-64.088-64.235v-735.531c0-35.476 28.51-64.235 63.918-64.235h480.165c35.301 0 63.918 28.743 63.918 63.705v64.295h255.781c53.14 0 96.219 42.952 96.219 95.961v224.078c0 52.998-42.752 95.961-96.219 95.961h-255.781zM640 128v-64.211c0-17.55-14.326-31.789-31.999-31.789h-480.003c-17.448 0-31.999 14.262-31.999 31.855v736.291c0 17.286 14.264 31.855 31.858 31.855h320.142v-159.811c0-35.82 28.624-64.189 63.933-64.189h128.067v-64h-255.781c-53.14 0-96.219-42.952-96.219-95.961v-224.078c0-52.998 42.752-95.961 96.219-95.961h255.781zM480 816l150.398-176h-118.503c-17.475 0-31.896 14.453-31.896 32.281v143.719zM383.826 512h544.348c34.951 0 63.826-28.539 63.826-63.745v-224.511c0-34.939-28.576-63.745-63.826-63.745h-544.348c-34.951 0-63.826 28.539-63.826 63.745v224.511c0 34.939 28.576 63.745 63.826 63.745zM384 384v64h95.844c35.551 0 64.156-28.654 64.156-64 0-35.593-28.724-64-64.156-64h-63.844v-96h-32v160zM416 416v-64h64.033c17.655 0 31.967 14.204 31.967 32 0 17.673-14.165 32-31.967 32h-64.033zM704 352v96h32v-224h-32v96h-96v-96h-32v224h32v-96h96zM768 384v64h95.844c35.551 0 64.156-28.654 64.156-64 0-35.593-28.724-64-64.156-64h-63.844v-96h-32v160zM800 416v-64h64.033c17.655 0 31.967 14.204 31.967 32 0 17.673-14.165 32-31.967 32h-64.033z" />
<glyph unicode="&#xe902;" glyph-name="file-php" d="M256.219 640h543.562c53.467 0 96.219-42.963 96.219-95.961v-224.078c0-53.009-43.079-95.961-96.219-95.961h-543.562c-53.467 0-96.219 42.963-96.219 95.961v224.078c0 53.009 43.079 95.961 96.219 95.961zM256 480v-160h32v96h63.844c35.432 0 64.156 28.407 64.156 64 0 35.346-28.605 64-64.156 64h-95.844v-64zM288 512v-64h64.033c17.655 0 31.967 14.204 31.967 32 0 17.673-14.165 32-31.967 32h-64.033zM576 448h-96v96h-32v-224h32v96h96v-96h32v224h-32v-96zM640 480v-160h32v96h63.844c35.432 0 64.156 28.407 64.156 64 0 35.346-28.605 64-64.156 64h-95.844v-64zM672 512v-64h64.033c17.655 0 31.967 14.204 31.967 32 0 17.673-14.165 32-31.967 32h-64.033z" />
<glyph unicode="&#xe903;" glyph-name="file-php1" d="M256.219 640h543.562c53.467 0 96.219-42.963 96.219-95.961v-224.078c0-53.009-43.079-95.961-96.219-95.961h-543.562c-53.467 0-96.219 42.963-96.219 95.961v224.078c0 53.009 43.079 95.961 96.219 95.961zM255.826 608c-35.25 0-63.826-28.806-63.826-63.745v-224.511c0-35.205 28.875-63.745 63.826-63.745h544.348c35.25 0 63.826 28.806 63.826 63.745v224.511c0 35.205-28.875 63.745-63.826 63.745h-544.348zM256 480v64h95.844c35.551 0 64.156-28.654 64.156-64 0-35.593-28.724-64-64.156-64h-63.844v-96h-32v160zM288 512v-64h64.033c17.655 0 31.967 14.204 31.967 32 0 17.673-14.165 32-31.967 32h-64.033zM576 448v96h32v-224h-32v96h-96v-96h-32v224h32v-96h96zM640 480v64h95.844c35.551 0 64.156-28.654 64.156-64 0-35.593-28.724-64-64.156-64h-63.844v-96h-32v160zM672 512v-64h64.033c17.655 0 31.967 14.204 31.967 32 0 17.673-14.165 32-31.967 32h-64.033z" />
<glyph unicode="&#xe904;" glyph-name="laravel" d="M1008.811 728.32c0.384-1.365 0.597-2.773 0.597-4.224v-219.733c0-5.76-3.115-11.093-8.064-13.909l-184.448-106.24v-210.517c0-5.76-3.072-11.008-8.021-13.909l-385.152-221.653c-0.896-0.512-1.835-0.853-2.816-1.152-0.341-0.085-0.683-0.341-1.024-0.427-2.688-0.768-5.547-0.768-8.192 0-0.469 0.085-0.853 0.341-1.237 0.512-0.896 0.341-1.835 0.597-2.688 1.067l-384.981 221.653c-4.992 2.901-8.064 8.149-8.064 13.909v659.413c0 1.408 0.213 2.816 0.597 4.181 0.128 0.512 0.427 0.896 0.597 1.365 0.256 0.853 0.597 1.707 0.981 2.475 0.171 0.555 0.64 0.939 0.981 1.408 0.512 0.683 0.896 1.323 1.408 1.92 0.512 0.427 1.067 0.768 1.579 1.152 0.597 0.512 1.152 1.024 1.749 1.451h0.043l192.555 110.805c4.907 2.859 11.051 2.859 16 0l192.597-110.805c0.64-0.427 1.152-0.896 1.749-1.408 0.512-0.384 1.067-0.768 1.579-1.152 0.555-0.597 0.896-1.237 1.408-1.92 0.341-0.469 0.853-0.896 1.067-1.408 0.469-0.811 0.725-1.621 1.024-2.475 0.128-0.469 0.469-0.896 0.555-1.365 0.427-1.323 0.597-2.731 0.597-4.181v-411.819l160.427 92.331v210.517c0 1.408 0.213 2.816 0.597 4.181 0.128 0.469 0.384 0.896 0.555 1.365 0.299 0.853 0.597 1.664 1.024 2.517 0.299 0.512 0.768 0.896 1.067 1.408 0.512 0.64 0.896 1.28 1.408 1.835 0.512 0.512 1.067 0.853 1.579 1.195 0.597 0.469 1.109 0.981 1.749 1.365h0.043l192.555 110.848c4.949 2.859 11.051 2.859 16 0l192.555-110.848c0.683-0.427 1.152-0.896 1.792-1.323 0.512-0.427 1.067-0.768 1.536-1.195 0.555-0.597 0.939-1.237 1.451-1.877 0.341-0.512 0.811-0.896 1.024-1.408 0.469-0.853 0.768-1.664 1.024-2.517 0.256-0.469 0.512-0.939 0.64-1.408zM977.237 513.621v182.741l-160.427-92.331v-182.741zM784.768 182.955v182.912l-352.981-201.515v-184.576zM46.72 805.376v-622.421l352.981-203.179v184.576l-184.576 104.448c-0.597 0.427-1.067 0.896-1.707 1.323-0.469 0.427-1.024 0.768-1.493 1.152l-0.043 0.085c-0.555 0.512-0.896 1.067-1.323 1.664-0.427 0.512-0.896 0.981-1.195 1.579h-0.085c-0.341 0.597-0.555 1.323-0.853 2.005-0.256 0.683-0.597 1.152-0.768 1.835-0.171 0.768-0.256 1.579-0.341 2.432-0.085 0.597-0.256 1.152-0.256 1.749v430.379l-93.013 53.632zM223.189 925.44l-160.427-92.331 160.427-92.331 160.341 92.331zM306.645 349.227l93.099 53.589v402.56l-160.512-92.373v-402.56zM800.811 816.469l-160.427-92.331 160.427-92.288 160.384 92.331zM784.768 604.032l-160.469 92.331v-182.741l160.469-92.331zM415.701 192.128l352.853 201.387-160.299 92.288-352.64-203.051z" />
<glyph unicode="&#xe905;" glyph-name="hugo" d="M501.504 960c-32.419-0.432-62.554-9.841-88.14-25.847l0.716 0.418-272-167.936c-51.962-32.492-86.024-89.385-86.059-154.235v-342.618c0-62.848 33.707-121.088 88.192-152.491l276.736-159.275c23.676-13.842 52.128-22.015 82.489-22.015 29.814 0 57.788 7.882 81.951 21.675l-0.813-0.428 300.501 169.216c49.82 28.466 82.864 81.261 82.901 141.776v361.008c-0.022 55.87-30.12 104.705-74.981 131.196l-0.71 0.388-302.763 176.085c-24.55 14.494-54.096 23.057-85.641 23.057-0.837 0-1.672-0.006-2.506-0.018l0.126 0.001zM502.443 888.576c17.621 0.256 35.328-4.267 51.2-13.44l302.72-176.085c24.917-14.507 40.149-40.96 40.107-69.76v-361.045c0-33.024-17.664-63.317-46.464-79.531l-300.459-169.216c-13.264-7.619-29.163-12.113-46.111-12.113-17.251 0-33.415 4.656-47.303 12.78l0.444-0.24-276.693 159.317c-31.535 18.362-52.395 52.009-52.395 90.528 0 0.019 0 0.037 0 0.056v-0.003 342.613c0 38.101 19.669 73.387 52.096 93.44l272.043 167.893c14.442 9.064 31.941 14.54 50.702 14.805l0.072 0.001zM301.909 724.565v-548.352h114.773v239.787h190.293v-239.787h115.029v548.352h-115.029v-199.723h-190.293v199.723z" />
<glyph unicode="&#xe906;" horiz-adv-x="1899" d="M26.695 448c0-268.024 413.056-485.305 922.567-485.305v0c509.511 0 922.57 217.281 922.57 485.305v0c0 268.021-413.060 485.305-922.57 485.305v0c-509.511 0-922.567-217.284-922.567-485.305z" />
<glyph unicode="&#xe907;" horiz-adv-x="1899" d="M949.262-1.273c489.61 0 886.529 201.148 886.529 449.274 0 248.123-396.919 449.274-886.529 449.274s-886.529-201.151-886.529-449.274c0-248.127 396.919-449.274 886.529-449.274z" />
<glyph unicode="&#xe908;" horiz-adv-x="1899" d="M527.935 392.297c40.259 0 70.314 7.424 89.33 22.060 18.813 14.485 31.807 39.581 38.617 74.588 6.35 32.721 3.931 55.568-7.188 67.898-11.369 12.593-35.948 18.98-73.053 18.98h-64.337l-35.667-183.526h52.298zM317.504 166.227c-2.986 0-5.823 1.335-7.721 3.644-1.902 2.306-2.673 5.342-2.102 8.275l94.526 486.346c0.914 4.702 5.035 8.098 9.827 8.098h203.727c64.027 0 111.684-17.385 141.638-51.678 30.115-34.473 39.415-82.66 27.639-143.22-4.792-24.673-13.034-47.587-24.496-68.101-11.475-20.538-26.641-39.541-45.084-56.493-22.076-20.662-47.063-35.644-74.198-44.46-26.705-8.699-61.001-13.11-101.934-13.11h-82.493l-23.558-121.2c-0.914-4.705-5.032-8.102-9.824-8.102h-105.948z" />
<glyph unicode="&#xe909;" horiz-adv-x="1899" d="M519.557 565.814h56.085c44.784 0 60.34-9.827 65.625-15.683 8.769-9.724 10.424-30.225 4.788-59.285-6.333-32.534-18.072-55.602-34.897-68.555-17.225-13.261-45.227-19.981-83.224-19.981h-40.155l31.777 163.505zM615.761 682.603h-203.73c-9.583 0-17.822-6.794-19.651-16.2l-94.526-486.346c-1.141-5.869 0.4-11.939 4.201-16.554 3.804-4.615 9.47-7.284 15.45-7.284h105.944c9.587 0 17.825 6.794 19.654 16.2l21.983 113.102h74.241c41.984 0 77.328 4.578 105.040 13.604 28.5 9.26 54.721 24.959 77.928 46.662 19.193 17.659 35.003 37.479 46.983 58.918 11.983 21.446 20.592 45.361 25.587 71.081 12.396 63.747 2.326 114.794-29.928 151.712-31.94 36.565-82.133 55.104-149.176 55.104zM463.491 382.288h64.444c42.715 0 74.531 8.045 95.437 24.139 20.909 16.097 35.010 42.962 42.338 80.608 7.011 36.145 3.817 61.651-9.58 76.51-13.414 14.859-40.239 22.29-80.488 22.29h-72.589l-39.561-203.547zM615.761 662.582c61.288 0 105.998-16.084 134.101-48.254 28.099-32.17 36.562-77.074 25.35-134.725-4.615-23.748-12.42-45.461-23.408-65.132-11.002-19.684-25.367-37.683-43.119-54.003-21.156-19.797-44.657-33.906-70.517-42.308-25.86-8.425-58.798-12.62-98.84-12.62h-90.748l-25.13-129.302h-105.944l94.526 486.343h203.73z" />
<glyph unicode="&#xe90a;" horiz-adv-x="1899" d="M1027.954 295.529c-2.99 0-5.823 1.335-7.721 3.644-1.905 2.306-2.676 5.339-2.106 8.275l41.814 215.189c3.978 20.465 2.996 35.154-2.76 41.36-3.524 3.794-14.108 10.157-45.404 10.157h-75.753l-52.572-270.524c-0.914-4.705-5.035-8.102-9.827-8.102h-105.11c-2.99 0-5.823 1.335-7.725 3.644-1.902 2.306-2.673 5.342-2.102 8.275l94.526 486.346c0.914 4.702 5.035 8.098 9.827 8.098h105.11c2.99 0 5.823-1.335 7.725-3.64 1.902-2.309 2.673-5.342 2.102-8.279l-22.811-117.383h81.492c62.082 0 104.179-10.945 128.698-33.462 24.993-22.971 32.791-59.699 23.181-109.178l-43.979-226.321c-0.914-4.705-5.032-8.102-9.827-8.102h-106.779z" />
<glyph unicode="&#xe90b;" horiz-adv-x="1899" d="M968.152 811.905h-105.11c-9.587 0-17.825-6.794-19.654-16.2l-94.526-486.346c-1.141-5.869 0.4-11.939 4.204-16.554s9.47-7.284 15.45-7.284h105.11c9.583 0 17.825 6.794 19.654 16.2l50.997 262.425h67.501c31.243 0 37.8-6.674 38.063-6.961 1.895-2.039 4.388-11.482 0.274-32.638l-41.814-215.189c-1.141-5.869 0.4-11.939 4.204-16.554s9.47-7.284 15.45-7.284h106.779c9.583 0 17.825 6.794 19.654 16.2l43.976 226.321c10.321 53.126 1.492 92.977-26.231 118.457-26.454 24.295-70.768 36.105-135.472 36.105h-69.353l20.498 105.461c1.138 5.869-0.4 11.943-4.204 16.554-3.804 4.615-9.47 7.288-15.45 7.288zM968.152 791.884l-25.13-129.302h93.638c58.918 0 99.558-10.284 121.924-30.826 22.367-20.555 29.067-53.86 20.128-99.898l-43.979-226.317h-106.779l41.814 215.186c4.758 24.479 3.010 41.176-5.252 50.079-8.265 8.903-25.847 13.361-52.739 13.361h-84.008l-54.143-278.625h-105.11l94.526 486.343h105.11z" />
<glyph unicode="&#xe90c;" horiz-adv-x="1899" d="M1354.853 392.297c40.259 0 70.314 7.424 89.33 22.060 18.813 14.482 31.807 39.578 38.62 74.588 6.35 32.721 3.931 55.568-7.191 67.898-11.369 12.593-35.948 18.98-73.053 18.98h-64.337l-35.667-183.526h52.298zM1144.426 166.227c-2.986 0-5.823 1.335-7.721 3.644-1.902 2.306-2.676 5.342-2.106 8.275l94.526 486.346c0.918 4.702 5.035 8.098 9.83 8.098h203.724c64.030 0 111.684-17.385 141.642-51.678 30.115-34.469 39.411-82.657 27.639-143.22-4.798-24.673-13.037-47.587-24.499-68.101-11.475-20.538-26.641-39.541-45.084-56.493-22.076-20.662-47.063-35.644-74.198-44.46-26.705-8.699-61.001-13.11-101.934-13.11h-82.496l-23.548-121.2c-0.918-4.705-5.035-8.102-9.83-8.102h-105.944z" />
<glyph unicode="&#xe90d;" horiz-adv-x="1899" d="M1346.475 565.814h56.085c44.784 0 60.34-9.827 65.625-15.683 8.773-9.724 10.428-30.225 4.788-59.282-6.333-32.537-18.076-55.605-34.897-68.559-17.225-13.261-45.227-19.981-83.224-19.981h-40.152l31.773 163.505zM1442.679 682.603h-203.727c-9.583 0-17.822-6.794-19.651-16.2l-94.526-486.346c-1.141-5.869 0.4-11.939 4.201-16.554 3.804-4.615 9.47-7.284 15.45-7.284h105.944c9.583 0 17.825 6.794 19.654 16.2l21.98 113.102h74.241c41.984 0 77.328 4.578 105.040 13.604 28.5 9.26 54.727 24.963 77.935 46.669 19.193 17.655 34.997 37.473 46.976 58.912 11.983 21.446 20.592 45.361 25.587 71.081 12.396 63.75 2.326 114.797-29.928 151.716-31.94 36.562-82.129 55.101-149.176 55.101zM1290.413 382.288h64.441c42.715 0 74.531 8.045 95.437 24.139 20.912 16.097 35.010 42.962 42.338 80.608 7.014 36.145 3.821 61.651-9.58 76.51-13.414 14.859-40.239 22.29-80.488 22.29h-72.589l-39.558-203.547zM1442.679 662.582c61.288 0 105.998-16.084 134.101-48.254s36.562-77.074 25.35-134.725c-4.615-23.748-12.42-45.461-23.408-65.132-11.002-19.684-25.367-37.683-43.119-54.003-21.156-19.797-44.657-33.906-70.517-42.308-25.86-8.425-58.798-12.62-98.84-12.62h-90.748l-25.126-129.302h-105.944l94.526 486.343h203.727z" />
<glyph unicode="&#xe90e;" d="M0 960v-622c6.762 9.576 13.108 19.178 24 24.624 14.917 7.458 37.709 3.376 54 3.376-9.428 38.272-9.033 79.040-6.177 118 14.753 201.264 176.393 373.104 376.177 401.429 158.558 22.48 316.922-42.884 415.15-169.429 37.936-48.872 66.196-107.45 79.27-168 12.668-58.668 18.106-123.034 3.58-182 28.046 0 64.636 5.43 76-28 6.412 15.278 2 39.458 2 56v566h-1024z" />
<glyph unicode="&#xe90f;" glyph-name="php_document_file_icon" d="M672 128h-287.781c-53.467 0-96.219 42.963-96.219 95.961v224.078c0 53.009 43.079 95.961 96.219 95.961h287.781v64h-159.811c-35.451 0-64.189 28.375-64.189 63.939v192.061h-319.727c-35.497 0-64.273-28.747-64.273-64.235v-735.531c0-35.476 28.51-64.235 63.918-64.235h480.165c35.301 0 63.918 28.51 63.918 63.918v64.082zM480 864v-191.906c0-17.725 14.431-32.094 31.705-32.094h160.295l-192 224zM383.826 512c-35.25 0-63.826-28.806-63.826-63.745v-224.511c0-35.205 28.875-63.745 63.826-63.745h544.348c35.25 0 63.826 28.806 63.826 63.745v224.511c0 35.205-28.875 63.745-63.826 63.745h-544.348zM384 384v-160h32v96h63.844c35.432 0 64.156 28.407 64.156 64 0 35.346-28.605 64-64.156 64h-95.844v-64zM416 416v-64h64.033c17.655 0 31.967 14.204 31.967 32 0 17.673-14.165 32-31.967 32h-64.033zM704 352v96h32v-224h-32v96h-96v-96h-32v224h32v-96h96zM768 384v-160h32v96h63.844c35.432 0 64.156 28.407 64.156 64 0 35.346-28.605 64-64.156 64h-95.844v-64zM800 416v-64h64.033c17.655 0 31.967 14.204 31.967 32 0 17.673-14.165 32-31.967 32h-64.033z" />
<glyph unicode="&#xe910;" d="M466 884v-194c6.204 11.65 7.034 27.18 10.254 40 3.116 12.41 8.892 25.32 10.37 38 1.34 11.487-0.624 24.351-0.624 36v84h56c-7.398 3.104-16.034 2-24 2-18.58 0-34.23-0.308-52-6z" />
<glyph unicode="&#xe911;" d="M424 882v-8c16.684 3.86 32.798 10.595 50 12-14.35 5.966-34.948-2.802-50-4z" />
<glyph unicode="&#xe912;" d="M486 888v-116c5.566 6.314 7.238 14.36 10.618 22 4.406 9.967 10.108 19.633 13.382 30 3.27-1.090 2.91-0.73 4-4 3.104 7.397 2 16.034 2 24v44h-30z" />
<glyph unicode="&#xe913;" d="M516 888c0-21.656-4.506-49.033 0.99-70 2.546-9.706 8.356-18.717 12.104-28 8.106-20.073 16.008-42.502 18.906-64 5.806 13.838 2 35.040 2 50v110h14c-13.374 5.612-33.534 2-48 2z" />
<glyph unicode="&#xe914;" d="M414 816c14.604 2.515 27.522 10.649 42 14-2.12-7.416-6.006-14.371-7.342-22-5.31-30.285-0.658-65.248-0.658-96v-182c6.986 16.196 3.354 36.722 5.43 54 0.704 5.88-0.454 14.168 5.206 17.944 6.332 4.226 18.082 2.056 25.364 2.056 0 16.424-1.822 33.948 2 50h-24c0.848 10.74 3.828 21.25 4.48 32 2.798 46.134-0.48 93.714-0.48 140v40c0.016 7.575-0.696 13.658 6 18-12.028 4.303-32.412-4.442-43.998-8.85-4.45-1.693-10.532-3.348-12.796-7.986-2.358-4.835-1.206-11.952-1.206-17.164v-34z" />
<glyph unicode="&#xe915;" d="M550 886c0-55.056-2.974-111.038 0.086-166 1.164-20.9 9.856-40.616 9.914-62 3.104 7.398 2 16.034 2 24v204h-12z" />
<glyph unicode="&#xe916;" d="M562 886v-234h-28v-48c11.358-2.108 22.486-2 34-2v156c0 22.845 4.984 52.278-2 74 4.86-2.364 8.626-3.461 14-4v54h12c-9.26 4.157-19.972 3.993-30 4z" />
<glyph unicode="&#xe917;" d="M422 882c-14.788-5.548-30.886-7.858-46-12.688-5.568-1.779-14.362-3.23-17.944-8.332-4.272-6.082-2.056-17.895-2.056-24.98 22.348 12.442 42.924 29.089 68 36-0.176 3.928-0.442 6.462-2 10z" />
<glyph unicode="&#xe918;" d="M580 882v-36c0-5.212-1.152-12.328 1.206-17.164 2.734-5.605 11.592-7.79 16.794-10.349 14.768-7.264 28.050-15.879 42-24.488v74h8c-18.58 11.352-46.69 14-68 14z" />
<glyph unicode="&#xe919;" d="M344 828c4.96-20.835 2-44.653 2-66 24.094 16.905 43.604 41.604 72 52-8.2 14.743-4 37.507-4 54-25.342-5.432-49.326-25.193-70-40z" />
<glyph unicode="&#xe91a;" d="M640 868v-50c0-7.388-1.564-17.077 2.056-23.821 8.502-15.839 29.348-25.137 39.944-40.179 3.104 7.397 2 16.034 2 24v46c0 9.482-2.804 22.292 6 28-13.318 10.069-33.452 15.861-50 16z" />
<glyph unicode="&#xe91b;" d="M354 862c-15.090-7.059-30.582-13.675-46-20 7.012-12.61 4-29.948 4-44 8.070 5.685 14.59 12.928 22 19.427 14.134 12.397 28.71 23.813 20 44.573z" />
<glyph unicode="&#xe91c;" d="M684 852v-66c0-9.878-2.072-22.558 1.178-32 4.002-11.634 15.674-22.056 22.822-32 3.75 8.938 2 20.382 2 30v58c0 10.968-1.48 22.145 4 32-9.498 5.405-19.002 9.436-30 10z" />
<glyph unicode="&#xe91d;" d="M250 806c6.514-27.364 2-59.922 2-88 13.182 14.034 21.958 32.8 34.006 48 7.632 9.629 20.544 20.44 24.788 32 4.364 11.889 1.206 29.422 1.206 42-23.108-4.119-41.986-22.857-62-34z" />
<glyph unicode="&#xe91e;" d="M710 840v-72c0-14.74-3.202-33.888 1.398-48 2.568-7.88 8.066-15.146 12.602-22 4.994 11.902 2 29.16 2 42v92c3.49-1.78 6.25-2.906 10-4-7.114 7.19-15.97 10.973-26 12z" />
<glyph unicode="&#xe91f;" d="M566 832c5.296-18.381 14.994-35.521 20.56-54 8.748-29.040 13.35-58.694 20.49-88 3.338-13.694-0.27-40.658 16.95-42v114c0 11.357 4.21 33.396-2.056 43.219-3.314 5.195-10.68 7.653-15.944 10.287-13.048 6.527-26.364 11.402-40 16.494z" />
<glyph unicode="&#xe920;" d="M726 832v-90c0-14.662-2.342-31.636 0.78-46 2.184-10.040 9.192-18.65 13.22-28 4.584 10.924 2 26.226 2 38v78c0 13.036-2.516 28.282 4 40-6.444 3.252-13.234 5.474-20 8z" />
<glyph unicode="&#xe921;" d="M406 648c10.368 6.722 8.198 32.202 11.158 44 7.18 28.6 11.732 57.622 20.282 86 5.244 17.41 15.394 34.179 18.56 52-13.256-1.958-40.092-9.31-47.944-21.108-6.542-9.827-2.056-33.379-2.056-44.892v-116z" />
<glyph unicode="&#xe922;" d="M312 720c11.034 8.982 28.846 28.254 32.972 42 5.586 18.613 1.028 44.596 1.028 64-11.786-4.99-28.65-17.637-33.374-30-2.612-6.841-0.626-16.752-0.626-24v-52z" />
<glyph unicode="&#xe923;" d="M510 824c-8.902-19.214-6-38.992-6-60v-110h58c-11.102 59.798-22.16 114.39-48 170h-4z" />
<glyph unicode="&#xe924;" d="M568 822c0-70.446-3.002-141.628 0.078-212 2.022-46.176 7.922-91.61 7.922-138h-42v-48h42l-2-58h6v334c0 25.332-0.118 50.668 0.002 76 0.080 16.734 0.858 33.165-12.002 46z" />
<glyph unicode="&#xe925;" d="M742 822v-104c0-16.798-2.248-35.432 0.658-52 1.834-10.464 7.932-19.984 11.342-30 3.962 9.44 2 21.84 2 32 0 25.926 6.408 60.908-6 84 2.372-2.372 3.168-3.056 6-4v66c2.958-1.971 2.406-2 6-2-5.81 5.969-11.738 8.918-20 10z" />
<glyph unicode="&#xe926;" d="M756 814v-44c0-7.618-1.276-16.744 1.484-24 5.042-13.254 18.958-23.904 26.516-36 2.882 6.87 2 14.596 2 22v42c0.010 6.61 2.008 15.736-1.546 21.653-5.594 9.312-18.662 14.952-28.454 18.347z" />
<glyph unicode="&#xe927;" d="M390 800c5.808-24.395 2-52.988 2-78 0-24.402 3.666-52.198-2-76l16 2v160c-5.664-2.138-10.688-5.089-16-8z" />
<glyph unicode="&#xe928;" d="M446 806c-5.238-19.797-4-39.605-4-60v-380h8l-2 56h128c-8.938 3.75-20.382 2-30 2h-62v48h92c-11.414 4.79-27.692 2-40 2h-88v300c0 10.16 1.962 22.56-2 32z" />
<glyph unicode="&#xe929;" d="M502 806c-9.962-17.133-15.428-37.022-20.842-56-8.74-30.626-17.786-64.056-19.158-96h42v104c0 14.431 3.604 34.645-2 48z" />
<glyph unicode="&#xe92a;" d="M216 640c8.814 13.936 13.31 31.106 20.516 46 4.882 10.088 13.158 20.872 15.034 32 4.586 27.182 0.45 58.422 0.45 86-11.124-4.303-30.666-16.705-35.374-28.179-4.244-10.344-0.626-28.621-0.626-39.821v-96z" />
<glyph unicode="&#xe92b;" d="M624 804v-120c0-15.068-5.862-36.9 14-38v116c0 16.536 4.298 34.827-14 42z" />
<glyph unicode="&#xe92c;" d="M374 788c3.964-16.649 2-34.964 2-52v-92c21.13 1.924 16 21.492 16 38v116c-6.766-2.279-12.034-6.121-18-10z" />
<glyph unicode="&#xe92d;" d="M280 664c7.84 9.452 12.644 21.442 18.904 32 4.522 7.626 10.814 15.102 12.546 24 4.49 23.064 0.55 50.497 0.55 74-11.818-5.557-28.078-23.108-31.714-36-2.496-8.85-0.286-20.802-0.286-30v-64z" />
<glyph unicode="&#xe92e;" d="M638 794v-148c6.050-1.124 11.844-1.872 18-2v106c0 19.319 2.596 35.272-18 44z" />
<glyph unicode="&#xe92f;" d="M580 792v-426h6v314c0 25.332-0.12 50.668 0.002 76 0.062 13.129 3.446 25.281-6.002 36z" />
<glyph unicode="&#xe930;" d="M786 792v-54c0-8.9-1.468-19.372 1.020-28 2.352-8.158 8.692-15.008 13.258-22 8.732-13.372 17.546-27.244 23.722-42 3.538 8.43 2 18.928 2 28v52c0 10.43-1.206 20.638 4 30-12.516 12.516-26.428 31.116-44 36z" />
<glyph unicode="&#xe931;" d="M440 790c-4.868-21.297-4-42.204-4-64v-360h6v384c0 12.308 2.79 28.585-2 40z" />
<glyph unicode="&#xe932;" d="M346 640l30 4v142c-10.222-4.682-25.19-15.065-29.374-26-3.726-9.74-0.626-25.576-0.626-36v-84z" />
<glyph unicode="&#xe933;" d="M656 780v-98c0-9.514-3.682-28.938 2.056-36.972 5.804-8.128 28.718-8.63 37.944-9.028v70c0 10.468 2.266 24.126-1.716 34-6.298 15.618-24.042 31.767-38.284 40z" />
<glyph unicode="&#xe934;" d="M182 586c22.9 6.598 27.082 24.628 32.48 46 3.948 15.632 1.52 33.962 1.52 50v92c-11.412-5.322-28.763-20.040-33.605-32-1.989-4.914-0.54-10.862-0.424-16 0.224-9.99 0.029-20.006 0.029-30v-110z" />
<glyph unicode="&#xe935;" d="M586 772v-406h10v296c0 20.614-0.79 41.404 0.078 62 0.658 15.594 0.862 35.476-10.078 48z" />
<glyph unicode="&#xe936;" d="M434 770c-10.344-50.116-6-102.846-6-154v-250h8v366c0 11.774 2.584 27.076-2 38z" />
<glyph unicode="&#xe937;" d="M342 758c-11.552-16.594-30.612-32.456-37.212-52-2.47-7.318-0.79-16.372-0.788-24v-52c9.908 2.786 33.736 2.78 39.944 11.306 5.272 7.24 2.056 24.126 2.056 32.694v84h-4z" />
<glyph unicode="&#xe938;" d="M276 756c-9.126-16.392-26.004-33.448-30.262-52-2.986-13.008 0.262-30.518 0.262-44v-100c11.554 2.672 22.762 6.894 34 10.666 4.504 1.512 10.92 2.704 13.944 6.738 2.912 3.882 2.046 10.060 2.056 14.596v34c-12.006-0.256-22.824-3.834-34-8 6.296 13.46 14.772 29.334 17.342 44 5.2 29.666 0.658 63.876 0.658 94h-4z" />
<glyph unicode="&#xe939;" d="M826 754v-72c0-12.188-1.804-26.044 0.78-38 3.53-16.328 13.992-31.958 19.22-48 4.994 11.902 2 29.16 2 42v92l8-6c-5.636 12.306-16.628 26.246-30 30z" />
<glyph unicode="&#xe93a;" d="M750 752c8.334-21.672 25.194-40.892 35.482-62 9.444-19.378 17.698-39.554 24.518-60 3.388-10.156 5.048-24.714 11.686-33.24 6.358-8.166 20.712-13.726 30.314-16.76-10.714 46.29-37.856 92.148-65.768 130-10.682 14.486-21.874 31.018-36.232 42z" />
<glyph unicode="&#xe93b;" d="M178 740c-7.051-10.312-18.957-19.938-22.872-32-4.165-12.834-1.128-30.59-1.128-44v-96c7.798 4.324 22.905 10.32 26.793 18.758 4.248 9.218 1.207 25.236 1.207 35.242v80c0 11.606 3.246 28.436-4 38z" />
<glyph unicode="&#xe93c;" d="M426 740c-2.714-21.456-10.338-42.464-11.82-64-2.366-34.34-0.18-69.576-0.18-104v-206h14v338c0 11.238 2.378 25.568-2 36z" />
<glyph unicode="&#xe93d;" d="M696 738v-72c0-7.842-2.732-22.272 2.056-28.972 4.182-5.852 13.656-4.976 19.944-5.028v52c0 8.324 1.288 17.996-1.406 26-3.484 10.352-12.558 20.866-20.594 28z" />
<glyph unicode="&#xe93e;" d="M756 738c0-37.976-5.73-81.224 4-118-11.582 1.010-22.304 5.49-34 6v-34c0.010-4.528-0.86-10.726 2.056-14.594 5.706-7.57 26.958-10.954 35.944-13.406v128c0 13.992 5.352 37.362-8 46z" />
<glyph unicode="&#xe93f;" d="M596 734v-368h6v268c0 20.61-0.816 41.41 0.078 62 0.56 12.874 2.31 27.1-6.078 38z" />
<glyph unicode="&#xe940;" d="M848 730v-92c0-19.438-1.93-39.292 4-58l-12 4v-38c0.002-5.668-0.862-12.498 2.056-17.632 4.57-8.042 16.138-13.922 23.944-18.368v150c0 12.926-4.368 37.386 2 48l2-2c-4.572 10.79-12.176 17.838-22 24z" />
<glyph unicode="&#xe941;" d="M764 726v-126c0-15.528-5.582-36.852 14-40 0.588-13.644 5.71-26.364 6-40 6.008 14.318 2 36.512 2 52v82c0 10.698 2.356 23.572 0.386 34-2.334 12.346-13.002 29.956-22.386 38z" />
<glyph unicode="&#xe942;" d="M866 708v-168c0-10.548-0.898-21.572 0.928-32 1.556-8.89 5.854-20.694 1.866-29.544-4.246-9.418-20.478-6.456-28.794-6.456v-48c7.478 0 18.832 2 25.364-2.358 5.56-3.71 4.876-11.824 4.294-17.642-1.848-18.49-16.568-27.59-31.658-36 10.938-4.59 26.198-2 38-2v308c0 6.726-1.276 14.54 2 20l2-2c-3.168 7.418-6.966 12.024-14 16z" />
<glyph unicode="&#xe943;" d="M152 706c-10.113-14.232-23.846-31.028-28.724-48-3.35-11.658-1.276-25.964-1.276-38v-74c9.415 4.804 24.486 13.256 29.944 22.6 5.186 8.878 2.056 25.42 2.056 35.4v68c0 10.7 2.17 24.062-2 34z" />
<glyph unicode="&#xe944;" d="M602 706v-340h8v234c0 33.040 8.394 75.83-8 106z" />
<glyph unicode="&#xe945;" d="M718 706v-50c0-8.494 1.282-17.028-4-24 12.706-6.804 31.612-11.342 46-12-3.762 21.85-16.328 44.84-27.152 64-4.484 7.938-8.098 15.764-14.848 22z" />
<glyph unicode="&#xe946;" d="M302 702c-17.718-24.882-30.244-55.164-40-84l42 12v46c0 8.52 1.322 18.082-2 26z" />
<glyph unicode="&#xe947;" d="M242 700c-4.906-11.786-12.546-23.418-15.22-36-2.42-11.374-0.78-24.414-0.78-36v-262h14c-0.4 19.418-4 38.496-4 58h18v48h-18c0 28.808 7.832 55.622 9.82 84 3.332 47.512 0.18 96.362 0.18 144h-4z" />
<glyph unicode="&#xe948;" d="M876 694v-328h16v284c0 6.278-1.054 12.91 2 18l2-2c-3.946 10.778-10.030 21.932-20 28z" />
<glyph unicode="&#xe949;" d="M786 684l2-212h-22v-48h22c-0.012-19.412-3.6-38.628-4-58h12v236c0 16.634-0.564 33.38 0.078 50 0.452 11.756 0.368 24.342-10.078 32z" />
<glyph unicode="&#xe94a;" d="M412 670c-0.004-5.35 1.074-12.668-2.056-17.364-3.034-4.554-9.070-4.692-13.944-5.484-10.078-1.636-19.77-3.124-30-3.152 7.732-13.902 4-34.474 4-50l34 2c-1.782-41.49-6-82.322-6-124h-32v-48h32l2-58h14v274c0 9.618 1.75 21.062-2 30z" />
<glyph unicode="&#xe94b;" d="M892 668v-302h12v262c0 6.278-1.054 12.91 2 18l2-2c-3.36 9.234-7.53 18.654-16 24z" />
<glyph unicode="&#xe94c;" d="M796 662v-296h20v204c0 23.952 0.388 43.056-7.334 66-3.112 9.242-5.8 18.924-12.666 26z" />
<glyph unicode="&#xe94d;" d="M224 660c-4.222-10.946-9.41-22.368-11.348-34-4.554-27.316-0.652-58.308-0.652-86v-174h14v264c0 9.618 1.75 21.062-2 30z" />
<glyph unicode="&#xe94e;" d="M610 658v-292h14l2 56h78c-7.398 3.104-16.034 2-24 2h-40v48h64c-7.918 3.322-17.48 2-26 2h-52c0 27.28-0.306 54.808-2.18 82-0.93 13.52-3.818 26.34-3.82 40h10c-2.496 1.37-3.096 1.498-6 2 0 13.7-4.484 36.8 4 48-8.082 3.53-12.788 4.216-18 12z" />
<glyph unicode="&#xe94f;" d="M120 654c-30.823-58.828-49.956-127.32-50-194 7.681 15.952 10.492 32.75 20.718 48 8.378 12.494 24.947 24.090 30.076 38 3.222 8.738 1.207 20.81 1.207 30v52c0 8.52 1.322 18.082-2 26z" />
<glyph unicode="&#xe950;" d="M484 604h50v48h28c-15.752 6.61-40.938 2.008-58 2-5.234-0.002-14.218 1.5-17.944-3.206-2.992-3.778-2.046-10.322-2.056-14.794v-32z" />
<glyph unicode="&#xe951;" d="M624 646v-48c14.474-2.986 29.206-7.354 44-8v34c-0.010 4.524 0.864 10.73-2.056 14.594-7.128 9.434-31.442 7.404-41.944 7.406z" />
<glyph unicode="&#xe952;" d="M904 646v-280h14v208c0 21.956 7.77 58.008-14 72z" />
<glyph unicode="&#xe953;" d="M292 628c7.966-14.324 4-35.99 4-52 23.942 6.744 49.138 14.036 74 16v50c-26.296-0.218-52.392-8.714-78-14z" />
<glyph unicode="&#xe954;" d="M668 640v-34c0.010-4.542-0.896-10.95 2.056-14.822 3.318-4.352 11.038-4.554 15.944-5.6 13.42-2.86 26.58-6.8 40-9.578 0 14.102-4.722 38.488 4 50-16.892 9.046-42.97 12.486-62 14z" />
<glyph unicode="&#xe955;" d="M210 622c-2.6-11.346-7.932-22.534-9.58-34-3.417-23.762-0.42-49.994-0.42-74v-148h12v230c0 8.52 1.322 18.082-2 26z" />
<glyph unicode="&#xe956;" d="M918 616v-250h14v184c0 19.79 5.298 52.832-14 66z" />
<glyph unicode="&#xe957;" d="M456 604c13.374-5.612 33.534-2 48-2v-128h26v128c-23.954 4.448-49.692 2-74 2z" />
<glyph unicode="&#xe958;" d="M524 604c2.496-1.37 3.096-1.498 6-2v-128h22v128l-28 2z" />
<glyph unicode="&#xe959;" d="M816 604v-238h10v172c0 21.206 6.052 49.768-10 66z" />
<glyph unicode="&#xe95a;" d="M454 602c-0.028-42.712-6-85.194-6-128h32v128h-26z" />
<glyph unicode="&#xe95b;" d="M480 602v-128h24v128h-24z" />
<glyph unicode="&#xe95c;" d="M552 602v-128h24c0 42.832-6 85.342-6 128h-18z" />
<glyph unicode="&#xe95d;" d="M382 596c3.534-14.844 2-30.818 2-46v-76h-148c13.838-5.806 35.040-2 50-2h112c0 41.616 5.144 82.57 6 124h-22z" />
<glyph unicode="&#xe95e;" d="M620 596c0-14.352 2.844-27.8 3.82-42 1.828-26.522 2.18-53.394 2.18-80h30v118c-12.068 2.274-23.7 3.992-36 4z" />
<glyph unicode="&#xe95f;" d="M162 514c9.958 4.188 18.213 11.37 28 16-1.533-19.426-4-38.458-4-58h-10v-48h10c0-19.492 2.47-38.616 4-58h10v150c0 25.012-3.808 53.606 2 78-11.159-3.214-31.511-10.464-37.944-20.758-3.313-5.3-2.055-13.288-2.056-19.242v-40z" />
<glyph unicode="&#xe960;" d="M348 590c2.496-1.37 3.096-1.498 6-2v-114h30v120c-12.224-0.102-23.846-3.476-36-4z" />
<glyph unicode="&#xe961;" d="M656 592v-118h22v114c-7.41 0.942-14.746 2.212-22 4z" />
<glyph unicode="&#xe962;" d="M826 592v-226h8c0.808 18.834 4 36.976 4 56h28c-7.918 3.322-17.474 2-26 2v48c7.464 0 18.542-1.994 25.364 1.484 9.674 4.932 4.622 29.408-0.492 36.168-6.492 8.584-19.626 12.006-23.666 22.428-5.264 13.586-2.52 39.998 0.794 53.92l-16 6z" />
<glyph unicode="&#xe963;" d="M330 586c6.266-11.266 4-25.47 4-38v-74h20v114l-24-2z" />
<glyph unicode="&#xe964;" d="M678 588v-114h46v74c0 7.448 2.862 22.552-3.206 28.132-9.196 8.452-30.964 8.806-42.794 11.868z" />
<glyph unicode="&#xe965;" d="M286 574v-100h48v110c-16.536-0.344-32.026-6.338-48-10z" />
<glyph unicode="&#xe966;" d="M932 578v-212c3.936 0.046 9.214-0.6 12.526 2.056 3.782 3.032 4.264 9.514 4.904 13.944 1.628 11.304 1.936 22.71 3.418 34 4.852 36.924 0.802 77.564-6.070 114-3.032 16.070-8.406 31.874-10.778 48h-4z" />
<glyph unicode="&#xe967;" d="M724 576v-102h28v66c0 7.44 2.476 20.588-2.056 26.974-4.624 6.518-18.614 7.948-25.944 9.026z" />
<glyph unicode="&#xe968;" d="M130 482c10.51 5.61 26.604 20.636 30.793 32 5.889 15.972 1.207 41.030 1.207 58-9.831-3.604-24.567-10.904-29.944-20.368-3.456-6.082-2.056-14.914-2.056-21.632v-48z" />
<glyph unicode="&#xe969;" d="M236 474h50v98c-10.104-1.492-31.282-5.146-38.024-13.404-4.804-5.888-4.864-17.374-6.144-24.596-3.544-20.004-5.832-39.624-5.832-60z" />
<glyph unicode="&#xe96a;" d="M752 568v-94l-68-2v-48l78-2c-14.338 6.016-36.478 2-52 2v48l78 2c0 29.632-7.684 56.902-10 86l-26 8z" />
<glyph unicode="&#xe96b;" d="M128 550c-10.81-11.45-6-35.084-6-50v-134h64c-20.289 19.434-43.762 32.456-58 58h48v48h-48c5.098 15.856 2 35.392 2 52 0 8.52 1.322 18.082-2 26z" />
<glyph unicode="&#xe96c;" d="M120 544c-15.66-16.184-12-34.818-12-56v-122h14v124c0 16.014 4.21 39.2-2 54z" />
<glyph unicode="&#xe96d;" d="M106 530c-12.27-15.224-24.291-31.052-30.193-50-11.914-38.252 0.713-88.536 32.193-114v114c0 14.96 3.806 36.162-2 50z" />
<glyph unicode="&#xe96e;" d="M130 474h56c0 19.062 3.189 37.168 4 56-22.066-7.032-54.044-33.098-60-56z" />
<glyph unicode="&#xe96f;" d="M128 476c4.551-5.208 11.366-3.998 18-4h40c-17.138 7.192-39.666-0.364-58 4z" />
<glyph unicode="&#xe970;" d="M710 472v-48l78-2c-6.864 2.88-14.6 2-22 2v48h22c-10.632 4.462-22.888 0.94-34 0.18-14.556-0.998-29.412-0.18-44-0.18z" />
<glyph unicode="&#xe971;" d="M254 472v-48h112v48h-112z" />
<glyph unicode="&#xe972;" d="M484 472v-48h50v48h-50z" />
<glyph unicode="&#xe973;" d="M640 472v-48h44v48h-44z" />
<glyph unicode="&#xe974;" d="M70 436c0.011-16.706 2.231-33.414 4.1-50 0.592-5.256 0.493-14.364 5.099-17.944 5.978-4.648 19.611-2.056 26.801-2.056-6.787 11.798-16.222 21.76-22.381 34-5.807 11.54-7.983 24.552-13.619 36z" />
<glyph unicode="&#xe975;" d="M128 420c18.45 4.392 39.109 2 58 2-11.886 4.988-29.175 2.024-42 2-6.211-0.012-11.794 0.814-16-4z" />
<glyph unicode="&#xe976;" d="M236 424c11.414-4.79 27.692-2 40-2h88v-56h36l-2 58h-162z" />
<glyph unicode="&#xe977;" d="M130 422c7.398-23.168 37.046-48.686 60-56-0.808 18.826-4 37.016-4 56h-56z" />
<glyph unicode="&#xe978;" d="M236 422c0.386-18.732 3.998-37.21 4-56h30v56h-34z" />
<glyph unicode="&#xe979;" d="M270 422v-56h32v56h-32z" />
<glyph unicode="&#xe97a;" d="M302 422v-56h32v56h-32z" />
<glyph unicode="&#xe97b;" d="M334 422v-56h30v56h-30z" />
<glyph unicode="&#xe97c;" d="M448 422l2-56h74v56h-76z" />
<glyph unicode="&#xe97d;" d="M524 422v-56h50l2 56h-52z" />
<glyph unicode="&#xe97e;" d="M626 422l-2-56h54v56h-52z" />
<glyph unicode="&#xe97f;" d="M678 422v-56h46v56h-46z" />
<glyph unicode="&#xe980;" d="M724 422v-56h60c0.802 18.692 3.988 37.25 4 56h-64z" />
<glyph unicode="&#xe981;" d="M838 422c0-18.956-3.612-37.22-4-56 11.428 3.642 27.762 12.7 32.972 24.078 4.392 9.59 3.028 21.674 3.028 31.922h-32z" />
<glyph unicode="&#xe982;" d="M272 76c-8.942 3.752-20.366 2-30 2v286c-53.358 0-106.793 2-160 2-19.079 0-47.424 5.318-63.998-5.708-22.118-14.716-18.002-39.1-18.002-62.292v-152c0-21.76-4.652-48.084 16.031-62.294 20.030-13.76 52.892-7.706 75.969-7.706h180z" />
<glyph unicode="&#xe983;" d="M108 366c8.938-3.75 20.383-2 30-2h262c-8.938 3.75-20.382 2-30 2h-262z" />
<glyph unicode="&#xe984;" d="M400 366c12.872-5.402 32.098-2 46-2h464c-12.872 5.402-32.098 2-46 2h-464z" />
<glyph unicode="&#xe985;" d="M910 366c14.346-9.652 27.192-15.806 32.422-34 5.366-18.674 1.578-42.666 1.578-62v-112c0-32.186 2.322-58.728-28-78 10.924-4.584 26.226-2 38-2 17.502 0 41.224-4.38 55.914 7.116 16.416 12.848 14.086 32.322 14.086 50.884v180c0 12.996 0.714 25.502-8.45 35.914-13.104 14.888-29.418 14.086-47.55 14.086h-58z" />
<glyph unicode="&#xe986;" d="M242 364v-286h62v70c-5.5 0.45-10.766 1.222-16 3.098-40.556 14.536-28 72.984-28 106.902 0 13.538-4.636 37.744 2.056 49.79 7.184 12.936 28.438 12.868 35.586 0 5.73-10.316 2.358-28.296 2.358-39.79h4v96h-62z" />
<glyph unicode="&#xe987;" d="M304 364v-96c7.466 0 17.024 1.446 23.782-2.358 9.862-5.552 9.926-20 0-25.586-7.472-4.208-19.482-2.056-27.782-2.056v-34c0-5.24-1.182-12.51 1.206-17.364 3.854-7.83 19.732-3.974 26.676-9.504 9.672-7.698 9.478-20.554-1.97-26.496-6.582-3.418-14.74-2.632-21.912-2.636v-70h60v50c0 8.298 1.294 17.882-0.628 26-2.87 12.122-11.61 20.838-13.024 34-3.706 34.484-0.586 71.31-0.346 106 0.038 5.46-0.114 10.93 3.196 15.582 3.268 4.596 8.572 6.852 10.166 12.626 3.428 12.42 0.636 28.93 0.636 41.792h-60z" />
<glyph unicode="&#xe988;" d="M364 364v-46c30.7-0.722 26-26.76 26-50 11.546 0 22.558-0.554 34-2v98h-60z" />
<glyph unicode="&#xe989;" d="M424 364c0-29.94 1.012-60.082-0.148-90-0.362-9.354 5.382-21.774-0.91-29.704-7.314-9.218-22.556-6.296-32.942-6.296v-38c0.010-4.472-0.936-11.016 2.056-14.794 3.194-4.032 9.46-2.934 13.944-3.414 8.232-0.882 16.744-5.092 18.884-13.822 2.974-12.136-10.864-15.724-12.588-26.078-3.366-20.208-0.296-43.394-0.296-63.892h58v16c-10.862 0.092-22.010 1.206-27.642 12.038-5.332 10.252-2.358 26.716-2.358 37.962v74c0 10.878-2.564 25.7 1.484 35.97 4.886 12.39 17.19 13.22 28.516 12.030v98h-46z" />
<glyph unicode="&#xe98a;" d="M470 364v-64c0-9.994-1.76-21.91 0.604-31.66 1.398-5.756 5.498-10.676 7.396-16.34 16.906 11.512 27.108 17.878 48 14v98h-56z" />
<glyph unicode="&#xe98b;" d="M526 364v-68c0-8.516-2.374-21.354 1.206-29.25 3.12-6.878 12.31-11.784 18.794-14.75v112h-20z" />
<glyph unicode="&#xe98c;" d="M546 364c0-36.56-4.1-75.716-0.32-112 0.804-7.726 5.692-14.61 7.9-22 3.188-10.67 3.186-22.972 2.078-34-1.264-12.608-6.102-24.276-14.316-33.97-4.17-4.92-11.446-8.844-14.136-14.78-2.714-5.992-1.206-14.832-1.206-21.25v-48h82v68c-12.206 0.996-43.54 8.118-39.524 25.998 5.034 22.412 28.162 4.362 41.524 4.034 4.622-0.112 14.698-1.062 16.496 4.804 2.136 6.968-7.624 10.724-12.498 12.278-16.78 5.352-36.374 9.466-42.11 28.886-5.232 17.71 9.452 26.264 11.818 42 4.788 31.856 0.294 67.76 0.294 100h-38z" />
<glyph unicode="&#xe98d;" d="M584 364v-104c8.056 2.686 15.694 6.072 24 8v68c0 6.596 2.242 19.74-2.518 25.132-4.362 4.942-15.59 2.868-21.482 2.868z" />
<glyph unicode="&#xe98e;" d="M606 364c3.71-31.716 2-64.084 2-96 10.842 0 21.236-1.15 32-2v98h-34z" />
<glyph unicode="&#xe98f;" d="M640 364c0-29.432-4.506-62.902 0.296-91.912 1.864-11.258 20.57-13.178 17.62-26.086-4.508-19.734-23.334-8.614-35.916-8.084-4.364 0.184-15.586 0.808-15.586-5.996 0-9.428 24.982-11.994 31.586-14.858 31.562-13.686 31.246-56.030-2-67.064 4.924-8.852 4-18.122 4-28v-44h28v286h-28z" />
<glyph unicode="&#xe990;" d="M668 364v-286h30v68c-25.246 7.504-25.246 32.496 0 40v28c-25.246 7.504-25.246 32.496 0 40v110h-30z" />
<glyph unicode="&#xe991;" d="M698 364v-70c0-10.928-1.504-23.104 0.296-33.892 1.822-10.914 16.328-13.938 16.328-26.108 0-10.356-9.842-13.442-14.568-20.91-3.16-4.994-2.45-13.4-1.938-19.052 1.096-12.15 17.026-15.392 16.736-28.038-0.264-11.552-13.488-14.326-16.218-24.208-5.158-18.668-0.636-44.414-0.636-63.792 19.23 0 39.036 1.52 58-2v68c-3.63-2.142-7.742-5.408-12.008-6.096-6.69-1.078-12.21 4.304-14.508 10.126-4.448 11.276-1.484 28.002-1.484 39.97v176h-30z" />
<glyph unicode="&#xe992;" d="M728 364v-210c7.698 9.292 11.304 21.226 16.516 32 4.024 8.316 9.644 16.732 11.058 26 2.738 17.946 0.426 37.856 0.426 56v96h-28z" />
<glyph unicode="&#xe993;" d="M756 364v-152c11.642 14.052 17.816 33.6 25.562 50 9.192 19.462 23.28 39.272 29.164 60 3.644 12.844 1.274 28.73 1.274 42h-56z" />
<glyph unicode="&#xe994;" d="M812 364v-38c3.030 3.952 5.75 9.254 10.376 11.556 7.692 3.826 17.916-3.25 18.208-11.564 0.35-10.034-9.718-23.248-14.090-31.992-11.75-23.5-25.098-47.618-34.822-72-3.098-7.768-1.71-15.838-1.674-24l0.002-42c13.464 16.252 21.012 41.036 30.494 60 10.942 21.884 21.058 44.116 32 66 5.662 11.324 14.034 23.548 16.726 36 3.11 14.388 0.78 31.312 0.78 46h-58z" />
<glyph unicode="&#xe995;" d="M870 364v-44c6.24 8.202 19.354 31.144 29.612 11.782 4.208-7.946-1.61-16.742-5.118-23.782-8.188-16.43-19.998-34.014-24.246-52-4.1-17.358-0.248-40.076-0.248-58v-122c8.564 0 32.146-4.116 37.944 3.206 3.678 4.646 1.858 13.294 2.236 18.794 1.278 18.67-0.18 37.174-0.18 56v210h-40z" />
<glyph unicode="&#xe996;" d="M910 364v-286c5.47 1.868 12.604 3.602 15.944 8.788 2.772 4.302 2.046 10.346 2.056 15.212v238c-0.002 5.156 1.092 12.242-2.056 16.724-3.512 5-10.396 6.286-15.944 7.276z" />
<glyph unicode="&#xe997;" d="M928 356v-268c18.484 14.318 14 39.096 14 60v148c0 21.362 4.264 44.866-14 60z" />
<glyph unicode="&#xe998;" d="M820.426 335.944c-12.73-7.48-18.792-33.232-24.942-45.944-20.536-42.44-45.224-84.264-62.78-128-4.354-10.846-1.166-29.486 14.87-22.508 5.774 2.512 8.28 9.274 10.92 14.51l15.012 29.998c13.938 27.876 27.046 56.116 40.988 84 8.298 16.596 19.274 34.028 24.23 52 3.268 11.854-5.916 23.22-18.298 15.944zM880.78 335.944c-4.678-2.972-6.896-9.214-9.274-13.944-5.978-11.894-11.388-23.976-17.068-36-19.846-42.014-44.492-82.866-61.734-126-4.26-10.656 0.606-26.406 15.086-20.784 5.546 2.152 8.14 7.842 10.696 12.786 5.478 10.59 10.676 21.334 16.008 31.998 14.268 28.534 27.726 57.45 42 86 8.060 16.122 19.96 34.442 24.192 52 2.764 11.466-9.692 20.432-19.906 13.944z" />
<glyph unicode="&#xe999;" d="M166 250v40c0 9.964 3.529 28.578-2.358 37.132-5.419 7.874-28.339 7.498-32.435-1.588-4.646-10.306-1.207-28.368-1.207-39.544v-94c0-11.086-4.798-35.578 8.117-40.794 8.954-3.614 24.414-1.71 27.247 8.882 4.52 16.902-1.385 36.584 1.014 53.912 1.389 10.034 9.99 22.47 21.614 18.476 27.738-9.528 6.952-54.352 15.214-74.258 4.374-10.534 26.318-11.568 33.31-3.35 6.768 7.956 3.484 25.402 3.484 35.132 0 18.262 1.452 37.242-7.348 54-15.476 29.476-46.388 28.132-66.652 6z" />
<glyph unicode="&#xe99a;" d="M942 332v-220c5.806 13.838 2 35.040 2 50v114c0 16.542 4.412 40.722-2 56z" />
<glyph unicode="&#xe99b;" d="M128 326v-168c5.198 12.388 2 30.628 2 44v84c0 12.308 2.79 28.586-2 40z" />
<glyph unicode="&#xe99c;" d="M166 324v-74c3.522 6.092 2.032 13.004 2.002 20-0.070 16.060 4.228 39.154-2.002 54z" />
<glyph unicode="&#xe99d;" d="M298 240c8.922 0 25.514-3.188 33.132 2.056 7.156 4.924 5.618 17.716-1.428 21.888-8.080 4.786-22.604 2.056-31.704 2.056 0 11.688 4.176 33.35-2.056 43.544-5.038 8.238-26.176 9.888-31.888 1.588-5.464-7.938-2.056-25.856-2.056-35.132v-70c0-11.534-1.992-25.176 2.734-35.992 9.114-20.858 31.93-20.27 51.266-20 12.030 0.168 24.798 7.806 17.356 21.774-6.688 12.554-21.396 3.968-30.488 11.702-4.826 4.104-4.78 10.716-4.86 16.516-0.186 13.328-0.008 26.67-0.008 40z" />
<glyph unicode="&#xe99e;" d="M388 240c8.922 0 25.514-3.188 33.132 2.056 7.030 4.838 6.158 18.84-1.588 22.46-8.564 4-22.266 1.484-31.544 1.484 0 11.87 4.122 33.27-2.056 43.704-5.284 8.924-28.090 9.626-32.738-0.392-4.268-9.204-1.206-25.312-1.206-35.312v-70c0-10.928-1.868-23.81 2.834-33.992 9.472-20.506 31.762-20.272 51.166-20 12.030 0.168 24.798 7.806 17.356 21.774-6.688 12.554-21.396 3.968-30.488 11.702-4.826 4.104-4.78 10.716-4.86 16.516-0.186 13.328-0.008 26.67-0.008 40z" />
<glyph unicode="&#xe99f;" d="M260 310v-128c4.17 9.938 2 23.3 2 34v62c0 10.16 1.962 22.56-2 32z" />
<glyph unicode="&#xe9a0;" d="M350 310v-128c3.962 9.44 2 21.84 2 32v62c0 10.7 2.17 24.062-2 34z" />
<glyph unicode="&#xe9a1;" d="M390 268c8.434-3.538 18.918-2 28-2-8.434 3.538-18.918 2-28 2zM456 268c3.012-1.366 4.63-1.652 8-2-3.012 1.366-4.63 1.652-8 2z" />
<glyph unicode="&#xe9a2;" d="M476 250c-1.27 16.694-27.706 23.502-33.132 5.784-4.256-13.892-0.868-33.308-0.868-47.784 0-32.266-2.72-65.862 0.118-97.992 1.466-16.6 28.054-19.598 35.826-5.79 3.188 5.664 2.056 13.542 2.056 19.782v40c4.746-5.556 9.266-10.472 16.008-13.622 21.090-9.856 42.518 1.946 52.372 21.622 16.922 33.79 3.414 108.972-48.38 94.122-9.874-2.832-16.388-9.736-24-16.122z" />
<glyph unicode="&#xe9a3;" d="M596 264.702c-20.352-6.14-32.030-33.934-19.982-52.516 5.824-8.982 16.192-12.694 25.982-15.46 6.252-1.764 25.844-5.084 24.46-14.546-0.884-6.040-9.554-7.78-14.46-7.804-11.784-0.062-28.474 15.606-39.132 6.416-10.118-8.724-2.104-22.224 7.162-27.12 16.086-8.502 40.958-9.456 57.97-3.456 32.204 11.358 30.054 54.944 0 66.854-6.902 2.736-31.586 4.824-31.586 14.928 0 5.568 7.254 7.424 11.588 7.438 10.946 0.034 25.54-11.802 35.13-2.54 8.442 8.154 4.526 20.618-5.17 25.164-13.092 6.138-38.16 6.806-51.962 2.642z" />
<glyph unicode="&#xe9a4;" d="M440 256v-150c4.378 10.432 2 24.762 2 36v74c0 12.308 2.79 28.586-2 40z" />
<glyph unicode="&#xe9a5;" d="M868 252c-6.336-10.856-14.638-23.754-17.728-36-3.308-13.106-0.272-30.428-0.272-44v-94h20v120c0 16.014 4.21 39.2-2 54z" />
<glyph unicode="&#xe9a6;" d="M298 240v-54c6.016 14.338 2 36.478 2 52h30c-9.448 3.964-21.82 2-32 2z" />
<glyph unicode="&#xe9a7;" d="M200 222v-64c2.656 6.332 2 13.162 2 20 0 13.372 3.198 31.612-2 44z" />
<glyph unicode="&#xe9a8;" d="M166 220v-62c4.994 11.902 2.001 29.16 2 42 0 6.838 0.657 13.668-2 20z" />
<glyph unicode="&#xe9a9;" d="M788 214c-7.89-13.516-13.552-28.014-20.496-42-4.032-8.124-10.158-16.95-11.658-26-3.626-21.864 0.154-47.738 0.154-70h114c-15.776 6.62-40.898 2-58 2v60c-38.226-2.738-14.912 54.342-24 76z" />
<glyph unicode="&#xe9aa;" d="M848 212c-8.998-15.414-15.534-32.056-23.506-48-4.030-8.060-10.922-17.098-12.524-26-3.352-18.612 0.030-41.014 0.030-60h38v92c0 12.84 2.994 30.098-2 42z" />
<glyph unicode="&#xe9ab;" d="M480 164c0-19.642 8.674-60.2-14-68 3.35-6.022 3.924-11.16 4-18h56v70c-20.33-3.774-31.136 2.432-46 16z" />
<glyph unicode="&#xe9ac;" d="M364 156v-78h48v70c-17.828 0-31.058 3.166-48 8z" />
<glyph unicode="&#xe9ad;" d="M602 148c3.538-1.558 6.072-1.824 10-2-3.538 1.558-6.072 1.824-10 2z" />
<glyph unicode="&#xe9ae;" d="M622 148c2.496-1.37 3.096-1.498 6-2-2.496 1.37-3.096 1.498-6 2z" />
<glyph unicode="&#xe9af;" d="M608 146v-68h32v70l-32-2z" />
<glyph unicode="&#xe9b0;" d="M692 148c3.012-1.366 4.63-1.652 8-2-3.012 1.366-4.63 1.652-8 2z" />
<glyph unicode="&#xe9b1;" d="M754 148v0z" />
<glyph unicode="&#xe9b2;" d="M814 146v0z" />
<glyph unicode="&#xe9b3;" d="M730 144v0z" />
<glyph unicode="&#xe9b4;" d="M752 144v0z" />
<glyph unicode="&#xe9b5;" d="M734 140v0z" />
<glyph unicode="&#xe9b6;" d="M748 140v0z" />
<glyph unicode="&#xe9b7;" d="M738 138c3.012-1.366 4.63-1.652 8-2-3.012 1.366-4.63 1.652-8 2z" />
<glyph unicode="&#xe9b8;" d="M800 138c2.496-1.37 3.096-1.498 6-2-2.496 1.37-3.096 1.498-6 2z" />
<glyph unicode="&#xe9b9;" d="M0 104v-168h1024v168c-6.504-7.73-10.976-16.164-20.002-21.55-20.612-12.302-52.898-6.45-75.998-6.45h-114c-19.034 0-39.074 1.8-58-0.216-11.604-1.236-21.98-9.874-32-15.322-18.818-10.234-37.994-19.116-58-26.84-54.678-21.112-115.548-30.102-174-27.544-51.206 2.242-102.73 14.288-150 33.946-15.844 6.588-30.94 14.41-46 22.594-11.486 6.24-20.482 13.186-34 13.374-54.644 0.76-109.351 0.008-164 0.008-23.574 0-56.977-6.096-77.998 6.45-9.025 5.386-13.498 13.82-20.002 21.55z" />
<glyph unicode="&#xe9ba;" d="M478 104v0z" />
<glyph unicode="&#xe9bb;" d="M476 102v0z" />
<glyph unicode="&#xe9bc;" d="M474 100v0z" />
<glyph unicode="&#xe9bd;" d="M448 98v0z" />
<glyph unicode="&#xe9be;" d="M470 98v0z" />
<glyph unicode="&#xe9bf;" d="M454 96c4.104-1.748 7.494-1.906 12-2-4.104 1.748-7.494 1.906-12 2z" />
<glyph unicode="&#xe9c0;" d="M908 78c8.43-3.538 18.928-2 28-2h56c-8.43 3.538-18.93 2-28 2-18.054 0-38.3 2.818-56 0z" />
<glyph unicode="&#xe9c1;" d="M272 78c16.734-7.022 43.848-2 62-2-16.734 7.022-43.848 2-62 2z" />
<glyph unicode="&#xe9c2;" d="M334 78c7.918-3.322 17.48-2 26-2h208c-7.918 3.322-17.48 2-26 2h-208z" />
<glyph unicode="&#xe9c3;" d="M568 78c15.278-6.412 39.458-2 56-2h128c-15.278 6.412-39.458 2-56 2h-128z" />
<glyph unicode="&#xe9c4;" d="M274 76c12.582-11.82 33.462-23.136 50-28v28h-50z" />
<glyph unicode="&#xe9c5;" d="M324 76c0-7.672-1.906-18.42 1.206-25.574 4.004-9.2 19.906-12.896 28.794-14.426 0 21.952-3.854 39.692-30 40z" />
<glyph unicode="&#xe9c6;" d="M338 76c16.328-21.336 50.194-40.938 76-48v48h-76z" />
<glyph unicode="&#xe9c7;" d="M414 76c0-12.826-4.448-35.57 1.206-47.164 2.264-4.638 8.346-6.292 12.796-7.986 12.090-4.6 25.042-8.286 37.998-8.85v64h-52z" />
<glyph unicode="&#xe9c8;" d="M466 76v-44c0-5.568-1.422-13.89 2.056-18.696 4.014-5.55 13.678-6.662 19.944-7.124 17.828-1.314 36.124-0.18 54-0.18-7.918 3.322-17.474 2-26 2v68h-50z" />
<glyph unicode="&#xe9c9;" d="M516 76v-68l64 2c-4.104 1.748-7.494 1.906-12 2v64h-52z" />
<glyph unicode="&#xe9ca;" d="M568 76v-64c28.010 0 52.87 8.386 80 14-3.012 1.366-4.63 1.652-8 2v48h-72z" />
<glyph unicode="&#xe9cb;" d="M640 76v-48c16.802 0.14 30.164 7.668 46 12-2.496 1.37-3.096 1.498-6 2v34h-40z" />
<glyph unicode="&#xe9cc;" d="M680 76v-34c24.808 1.286 48.67 20.648 70 32-7.398 3.104-16.034 2-24 2h-46z" />
<glyph unicode="&#xe9cd;" d="M354 60c0-6.842-2.274-18.824 2.056-24.596 3.022-4.030 9.442-5.232 13.944-6.738 11.038-3.692 22.368-7.652 34-8.666-0.502 15.102-12.39 17.984-24 24.906-8.694 5.184-16.492 11.49-26 15.094z" />
<glyph unicode="&#xe9ce;" d="M714 56v0zM710 54v0z" />
<glyph unicode="&#xe9cf;" d="M404 32v-14c23.526-1.922 46.156-9.802 70-10-8.252 5.646-20.332 5.654-30 8.304-13.956 3.824-26.71 10.17-40 15.696z" />
<glyph unicode="&#xe9d0;" d="M610 18v0z" />
<glyph unicode="&#xe9d1;" d="M938.75 903.167h-853.334c-15.683 0-28.5-12.647-28.5-28.5v-631.232c0-15.683 12.647-28.5 28.5-28.5h853.334c15.683 0 28.5 12.647 28.5 28.5v631.232c0.003 15.683-12.814 28.5-28.5 28.5z" />
<glyph unicode="&#xe9d2;" d="M663.694 65.853l-22.936 92.249h-257.351l-22.936-92.249c-3.203-12.65-14.504-21.587-27.657-21.587h-64.758v-51.436h487.884v51.438h-64.758c-12.983 0-24.284 8.768-27.488 21.584z" />
<glyph unicode="&#xe9d3;" d="M170.75 730.646h91.237c15.683 0 28.5-12.647 28.5-28.5s-12.647-28.5-28.5-28.5h-91.237v-56.833h34.404c15.683 0 28.5-12.647 28.5-28.5 0-15.683-12.647-28.5-28.5-28.5h-34.404v-231.042h682.837v460.563h-682.837v-58.688z" />
<glyph unicode="&#xe9d4;" d="M938.75 960h-853.334c-47.050 0-85.333-38.283-85.333-85.333v-631.232c0-47.050 38.283-85.333 85.333-85.333h239.473l-14.335-56.833h-70.998c-15.683 0-28.5-12.647-28.5-28.5v-108.269c0-15.683 12.647-28.5 28.5-28.5h544.887c15.683 0 28.5 12.647 28.5 28.5v108.269c0 15.683-12.647 28.5-28.5 28.5h-70.998l-14.335 56.833h239.473c47.050 0 85.333 38.283 85.333 85.333v631.232c0.17 47.050-38.113 85.333-85.166 85.333zM755.943 44.269v-51.436h-487.717v51.436h64.758c13.153 0 24.454 8.937 27.657 21.587l22.936 92.249h257.181l22.936-92.249c3.203-12.647 14.504-21.587 27.657-21.587h64.591zM938.75 214.935h-853.334c-15.683 0-28.5 12.647-28.5 28.5v631.232c0 15.683 12.647 28.5 28.5 28.5h853.334c15.683 0 28.5-12.647 28.5-28.5v-631.399h0.17c-0.167-15.517-12.817-28.333-28.67-28.333z" />
<glyph unicode="&#xe9d5;" d="M881.75 846.334h-739.331c-15.683 0-28.5-12.647-28.5-28.5v-517.396c0-15.683 12.647-28.5 28.5-28.5h739.668c15.683 0 28.5 12.647 28.5 28.5v517.227c-0.167 15.686-13.153 28.67-28.837 28.67zM853.587 328.938h-682.837v231.042h34.404c15.683 0 28.5 12.647 28.5 28.5 0 15.683-12.647 28.5-28.5 28.5h-34.404v57.003h91.237c15.683 0 28.5 12.647 28.5 28.5 0 15.683-12.647 28.5-28.5 28.5h-91.237v58.688h682.837v-460.733z" />
<glyph unicode="&#xe9d6;" d="M284.752 539.741l90.055-90.055c17.538-16.19 34.74-5.564 40.307 0 11.131 11.131 11.131 29.006 0 40.307l-69.986 69.819 69.986 69.986c11.131 11.131 11.131 29.006 0 40.307-11.131 11.131-29.006 11.131-40.307 0l-90.055-90.055c-11.129-11.134-11.129-29.011 0-40.31z" />
<glyph unicode="&#xe9d7;" d="M609.222 449.687c12.986-13.153 32.043-9.277 40.307 0l90.055 90.055c11.131 11.131 11.131 29.006 0 40.307l-90.055 90.055c-11.131 11.131-29.006 11.131-40.307 0-11.131-11.131-11.131-29.006 0-40.307l69.986-69.986-69.986-69.986c-11.129-10.962-11.129-28.839 0-40.137z" />
<glyph unicode="&#xe9d8;" d="M454.576 388.299c17.877-5.397 32.043 5.903 36.089 17.708l98.825 287.536c5.058 14.841-2.867 31.030-17.708 36.089s-31.030-2.867-36.089-17.708l-98.825-287.536c-5.058-14.669 2.7-31.364 17.708-36.089z" />
<glyph unicode="&#xe9d9;" d="M570.926 901.336l299.605-174.42c35.355-20.69 57.354-58.664 57.354-99.519v-357.221c0-45.307-24.356-87.21-64.164-109.471l-297.248-167.349c-39.546-22.261-87.734-21.999-127.018 0.524l-273.678 157.397c-42.95 24.88-69.663 70.711-69.663 120.209v339.151c0 50.021 25.927 96.376 68.354 122.566l269.226 166.302c41.903 25.927 94.805 26.451 137.232 1.833z" />
<glyph unicode="&#xe9da;" d="M304.057 179.036v542.641h113.661v-197.729h188.301v197.729h113.923v-542.641h-113.923v237.275h-188.301v-237.275z" />
<glyph unicode="&#xe9db;" d="M227.777 411.257v83.85c0 10.904-5.775 20.992-15.176 26.516-20.176 11.854-55.821 32.797-77.65 45.624-11.529 6.771-25.85 6.619-37.229-0.398-19.321-11.914-49.465-30.501-68.923-42.501-11.735-7.236-18.882-20.034-18.882-33.82v-85.851c0-13.675 7.256-26.321 19.060-33.221l71.824-41.983c9.547-5.583 21.337-5.704 31.001-0.322 20.974 11.684 58.12 32.37 79.519 44.29 10.151 5.658 16.44 16.365 16.44 27.983v9.835l0.014-0.001z" />
<glyph unicode="&#xe9dc;" d="M116.762 581.479h0.19l0.169-0.002h0.97l0.169-0.007h0.021l0.169-0.007h0.019l0.171-0.007h0.014l0.171-0.007h0.021l0.165-0.007h0.021l0.165-0.007h0.014l0.171-0.007h0.021l0.171-0.014h0.021l0.165-0.014h0.014l0.165-0.014h0.021l0.171-0.014h0.014l0.165-0.014h0.021l0.171-0.014h0.021l0.171-0.014h0.021l0.171-0.014h0.021l0.165-0.014h0.021l0.165-0.014h0.021l0.171-0.014h0.021l0.171-0.021h0.021l0.171-0.021h0.014l0.165-0.021h0.021l0.165-0.021h0.021l0.171-0.021h0.021l0.171-0.021h0.014l0.165-0.021h0.021l0.171-0.021h0.021l0.165-0.027 0.021-0.007 0.171-0.027h0.021l0.165-0.027h0.014l0.171-0.027h0.021l0.165-0.027h0.021l0.165-0.027h0.014l0.171-0.027h0.021l0.165-0.027 0.021-0.007 0.165-0.027 0.021-0.007 0.165-0.034h0.021l0.165-0.027h0.021l0.165-0.034h0.021l0.171-0.034h0.014l0.165-0.034h0.021l0.165-0.034h0.014l0.171-0.034 0.021-0.007 0.171-0.034h0.014l0.165-0.041 0.021-0.007 0.165-0.041h0.021l0.171-0.041 0.014-0.007 0.165-0.034 0.021-0.007 0.165-0.034 0.014-0.007 0.165-0.041h0.021l0.165-0.041 0.021-0.007 0.165-0.041 0.014-0.007 0.171-0.041 0.014-0.007 0.165-0.041 0.021-0.007 0.165-0.041h0.014l0.165-0.048h0.021l0.171-0.041 0.021-0.007 0.165-0.041h0.021l0.165-0.048 0.021-0.007 0.165-0.048 0.021-0.007 0.165-0.048 0.021-0.007 0.165-0.048 0.014-0.007 0.165-0.048 0.021-0.007 0.165-0.048 0.021-0.007 0.165-0.048 0.185-0.062 0.014-0.007 0.165-0.055h0.021l0.165-0.055h0.021l0.535-0.178 0.014-0.007 0.35-0.117 0.014-0.007 0.165-0.055 0.014-0.007 0.158-0.055 0.021-0.007 0.158-0.055 0.021-0.007 0.158-0.062 0.021-0.007 0.165-0.062 0.021-0.007 0.158-0.062 0.014-0.007 0.165-0.055 0.014-0.007 0.165-0.062 0.021-0.007 0.165-0.062 0.021-0.007 0.158-0.062 0.021-0.007 0.158-0.069 0.014-0.007 0.165-0.062 0.021-0.007 0.158-0.069 0.021-0.007 0.165-0.069 0.021-0.007 0.165-0.069 0.014-0.007 0.165-0.069 0.014-0.007 0.158-0.069 0.014-0.007 0.158-0.069 0.014-0.007 0.165-0.069 0.014-0.007 0.158-0.069 0.021-0.007 0.158-0.069 0.021-0.007 0.158-0.069 0.014-0.007 0.158-0.075 0.021-0.007 0.158-0.075 0.021-0.007 0.158-0.075 0.014-0.007 0.158-0.075 0.014-0.007 0.158-0.075 0.021-0.007 0.158-0.075 0.021-0.007 0.158-0.075 0.021-0.007 0.158-0.075 0.014-0.007 0.158-0.082 0.014-0.014 0.158-0.075 0.014-0.007 0.151-0.082 0.021-0.007 0.158-0.075 0.014-0.007 0.158-0.082 0.021-0.007 0.151-0.082 0.021-0.014 0.158-0.082 0.021-0.007 0.158-0.082 0.014-0.007 0.151-0.082 0.021-0.014 0.158-0.082 0.014-0.014 0.151-0.089 0.014-0.014 0.151-0.089 0.021-0.007 0.151-0.089 0.014-0.007 0.151-0.089 0.014-0.014 0.151-0.089 0.021-0.014 0.144-0.089h0.014l80.461-47.42 0.117-0.089 0.021-0.014 0.117-0.082 0.014-0.007 0.117-0.082 0.014-0.007 0.117-0.082 0.014-0.014 0.117-0.082 0.014-0.007 0.117-0.082 0.014-0.014 0.117-0.082 0.014-0.014 0.117-0.089 0.021-0.014 0.11-0.089 0.021-0.014 0.117-0.089 0.021-0.007 0.117-0.089 0.014-0.014 0.117-0.089 0.014-0.014 0.11-0.089 0.021-0.014 0.117-0.096 0.021-0.021 0.219-0.178 0.027-0.021 0.219-0.185 0.027-0.021 0.226-0.185 0.027-0.021 0.226-0.185 0.027-0.021 0.219-0.185 0.027-0.027 0.219-0.185 0.027-0.021 0.213-0.192 0.027-0.021 0.213-0.192 0.027-0.021 0.213-0.199 0.027-0.021 0.206-0.192 0.027-0.021 0.213-0.199 0.027-0.027 0.206-0.199 0.027-0.027 0.206-0.199 0.254-0.254 0.199-0.206 0.027-0.027 0.199-0.206 0.021-0.027 0.199-0.206 0.027-0.027 0.192-0.206 0.027-0.027 0.192-0.206 0.027-0.027 0.192-0.206 0.027-0.027 0.192-0.213 0.027-0.027 0.185-0.219 0.021-0.027 0.192-0.213 0.027-0.027 0.185-0.219 0.027-0.027 0.185-0.219 0.021-0.027 0.185-0.219 0.027-0.027 0.178-0.219 0.021-0.027 0.178-0.219 0.027-0.027 0.178-0.226 0.021-0.027 0.171-0.226 0.021-0.027 0.171-0.226 0.021-0.027 0.171-0.226 0.021-0.034 0.171-0.233 0.021-0.027 0.171-0.226 0.021-0.034 0.165-0.233 0.021-0.027 0.165-0.233 0.021-0.027 0.165-0.233 0.021-0.034 0.158-0.233 0.021-0.034 0.158-0.24 0.021-0.034 0.151-0.233 0.021-0.027 0.151-0.233 0.021-0.027 0.158-0.24 0.021-0.027 0.151-0.24 0.185-0.309 0.151-0.24 0.185-0.309 0.144-0.247 0.021-0.027 0.137-0.247 0.021-0.034 0.137-0.247 0.021-0.034 0.137-0.247 0.021-0.034 0.137-0.247 0.014-0.034 0.137-0.254 0.014-0.034 0.13-0.254 0.014-0.034 0.13-0.254 0.021-0.027 0.123-0.261 0.014-0.034 0.13-0.254 0.014-0.034 0.123-0.254 0.021-0.034 0.117-0.261 0.014-0.034 0.117-0.261 0.014-0.034 0.117-0.261 0.014-0.034 0.117-0.261 0.014-0.034 0.11-0.261 0.014-0.034 0.11-0.261 0.014-0.034 0.103-0.267 0.014-0.034 0.103-0.261 0.014-0.034 0.103-0.267 0.014-0.034 0.103-0.267 0.014-0.034 0.103-0.267 0.014-0.034 0.096-0.267 0.014-0.034 0.089-0.267 0.014-0.034 0.089-0.267 0.014-0.034 0.089-0.267 0.014-0.034 0.089-0.274 0.007-0.034 0.082-0.267 0.014-0.034 0.082-0.274 0.007-0.034 0.082-0.274 0.014-0.034 0.082-0.274 0.014-0.034 0.075-0.274 0.014-0.034 0.075-0.274 0.007-0.034 0.069-0.274 0.014-0.041 0.075-0.281 0.007-0.034 0.069-0.281 0.014-0.034 0.062-0.281 0.014-0.034 0.069-0.281 0.007-0.041 0.062-0.281 0.007-0.034 0.062-0.281 0.007-0.034 0.055-0.281 0.007-0.034 0.055-0.281 0.007-0.034 0.055-0.281 0.007-0.034 0.048-0.288 0.007-0.034 0.048-0.281 0.062-0.37 0.041-0.288 0.007-0.041 0.041-0.281v-0.027l0.021-0.151v-0.014l0.014-0.144v-0.021l0.021-0.144v-0.014l0.021-0.144v-0.021l0.021-0.144 0.007-0.021 0.021-0.144v-0.021l0.014-0.144 0.007-0.014 0.014-0.144 0.007-0.021 0.014-0.144v-0.021l0.014-0.144 0.007-0.021 0.014-0.144 0.007-0.021 0.014-0.144v-0.021l0.014-0.144v-0.021l0.014-0.144v-0.021l0.014-0.144v-0.021l0.014-0.144v-0.021l0.007-0.144v-0.021l0.007-0.151v-0.021l0.014-0.151v-0.014l0.007-0.144v-0.021l0.007-0.144v-0.021l0.007-0.144v-0.021l0.007-0.144v-0.021l0.007-0.151v-0.021l0.007-0.144v-0.021l0.007-0.144v-0.014l0.007-0.144v-95.747l-0.007-0.158v-0.199l-0.007-0.158v-0.021l-0.007-0.151v-0.014l-0.007-0.158v-0.021l-0.007-0.151v-0.014l-0.007-0.151v-0.021l-0.007-0.151-0.007-0.021-0.007-0.151v-0.021l-0.007-0.151v-0.014l-0.007-0.158v-0.021l-0.014-0.158v-0.014l-0.014-0.158v-0.021l-0.014-0.151v-0.021l-0.007-0.151v-0.021l-0.014-0.151v-0.021l-0.014-0.151v-0.021l-0.014-0.151v-0.021l-0.014-0.151-0.007-0.014-0.014-0.158-0.007-0.021-0.014-0.151v-0.021l-0.014-0.151-0.007-0.021-0.021-0.151v-0.021l-0.021-0.151v-0.014l-0.021-0.151v-0.021l-0.021-0.151-0.007-0.021-0.021-0.158-0.007-0.021-0.021-0.151-0.007-0.021-0.021-0.151v-0.021l-0.021-0.151v-0.021l-0.021-0.151-0.007-0.021-0.021-0.151-0.007-0.021-0.027-0.151v-0.014l-0.021-0.151v-0.014l-0.027-0.151-0.007-0.021-0.021-0.151-0.007-0.021-0.021-0.151v-0.014l-0.027-0.151v-0.014l-0.027-0.151v-0.014l-0.027-0.151v-0.021l-0.027-0.144-0.007-0.021-0.027-0.144-0.007-0.021-0.027-0.151-0.007-0.021-0.034-0.151v-0.014l-0.034-0.151v-0.014l-0.027-0.144v-0.021l-0.034-0.151v-0.014l-0.027-0.151-0.007-0.014-0.034-0.144v-0.014l-0.034-0.144v-0.021l-0.034-0.144-0.007-0.021-0.034-0.144-0.007-0.021-0.034-0.144-0.007-0.014-0.034-0.144-0.007-0.014-0.034-0.144-0.007-0.021-0.041-0.144-0.007-0.021-0.034-0.144-0.007-0.021-0.041-0.144v-0.021l-0.041-0.151-0.007-0.021-0.041-0.144v-0.021l-0.041-0.144-0.007-0.021-0.041-0.144-0.007-0.021-0.041-0.151-0.007-0.014-0.041-0.144-0.007-0.014-0.041-0.144-0.062-0.185-0.041-0.144-0.007-0.014-0.041-0.144-0.007-0.021-0.041-0.144-0.007-0.014-0.267-0.802-0.007-0.014-0.158-0.473-0.007-0.014-0.11-0.329-0.055-0.137-0.007-0.021-0.048-0.137-0.007-0.021-0.048-0.137-0.062-0.185-0.055-0.144-0.007-0.021-0.055-0.137-0.007-0.021-0.055-0.137-0.007-0.021-0.055-0.137-0.007-0.021-0.055-0.137-0.007-0.021-0.055-0.137-0.007-0.021-0.055-0.137-0.007-0.014-0.062-0.137-0.007-0.021-0.062-0.144-0.007-0.021-0.055-0.137-0.007-0.021-0.062-0.137-0.007-0.021-0.062-0.137-0.007-0.021-0.062-0.137-0.007-0.014-0.062-0.137-0.007-0.021-0.062-0.137-0.007-0.014-0.062-0.137-0.007-0.014-0.062-0.137-0.007-0.014-0.062-0.137-0.082-0.165-0.069-0.13-0.007-0.021-0.062-0.137-0.007-0.014-0.069-0.13-0.007-0.021-0.062-0.137-0.075-0.151-0.007-0.021-0.075-0.151-0.069-0.13-0.075-0.151-0.007-0.021-0.069-0.137-0.007-0.021-0.069-0.137-0.014-0.021-0.069-0.13-0.075-0.151-0.007-0.021-0.069-0.137-0.007-0.021-0.075-0.13-0.014-0.014-0.075-0.13-0.007-0.014-0.075-0.13-0.007-0.014-0.075-0.13-0.007-0.014-0.075-0.13-0.007-0.014-0.075-0.13-0.007-0.021-0.075-0.13-0.007-0.014-0.075-0.13-0.007-0.021-0.075-0.13-0.014-0.014-0.075-0.13-0.014-0.014-0.075-0.13-0.007-0.014-0.075-0.13-0.007-0.021-0.082-0.13-0.007-0.014-0.075-0.123-0.007-0.021-0.075-0.123-0.014-0.014-0.082-0.13-0.007-0.021-0.082-0.123-0.014-0.014-0.082-0.123-0.007-0.014-0.082-0.13-0.096-0.144-0.014-0.014-0.082-0.123-0.007-0.014-0.082-0.13-0.007-0.014-0.082-0.123-0.014-0.014-0.089-0.123-0.007-0.014-0.082-0.123-0.007-0.014-0.089-0.123-0.007-0.014-0.082-0.123-0.014-0.014-0.082-0.123-0.014-0.014-0.089-0.123-0.014-0.014-0.082-0.123-0.007-0.014-0.089-0.123-0.096-0.144-0.014-0.014-0.089-0.123-0.014-0.014-0.089-0.123-0.014-0.014-0.089-0.123-0.014-0.014-0.089-0.123-0.007-0.014-0.089-0.117-0.014-0.014-0.089-0.117-0.007-0.014-0.096-0.117-0.014-0.014-0.089-0.117-0.007-0.014-0.089-0.123-0.014-0.014-0.096-0.123-0.014-0.014-0.096-0.117-0.014-0.014-0.096-0.117-0.007-0.014-0.096-0.117-0.014-0.014-0.096-0.117-0.014-0.014-0.096-0.117-0.014-0.014-0.096-0.117-0.014-0.014-0.096-0.117-0.007-0.014-0.096-0.117-0.014-0.014-0.103-0.117-0.014-0.014-0.096-0.117-0.014-0.014-0.096-0.117-0.014-0.014-0.096-0.117-0.014-0.014-0.096-0.117-0.014-0.014-0.096-0.11-0.014-0.014-0.103-0.117-0.014-0.014-0.096-0.117-0.014-0.014-0.103-0.117-0.014-0.014-0.096-0.117-0.014-0.014-0.103-0.11-0.014-0.014-0.103-0.11-0.014-0.014-0.103-0.11-0.014-0.014-0.103-0.11-0.014-0.014-0.103-0.11-0.014-0.014-0.103-0.11-0.014-0.014-0.103-0.11-0.014-0.014-0.103-0.11-0.137-0.137-0.103-0.11-0.24-0.24-0.021-0.014-0.123-0.123-0.11-0.103-0.137-0.137-0.11-0.103-0.014-0.014-0.11-0.103-0.014-0.014-0.11-0.103-0.014-0.014-0.11-0.103-0.014-0.014-0.11-0.103-0.014-0.014-0.11-0.103-0.014-0.014-0.117-0.103-0.014-0.007-0.11-0.103-0.014-0.014-0.117-0.103-0.014-0.014-0.117-0.103-0.014-0.007-0.117-0.103-0.014-0.014-0.117-0.096-0.021-0.014-0.117-0.096-0.014-0.014-0.117-0.103-0.014-0.014-0.117-0.103-0.014-0.014-0.117-0.103-0.014-0.014-0.117-0.096-0.014-0.014-0.123-0.096-0.014-0.007-0.117-0.096-0.014-0.014-0.117-0.096-0.021-0.014-0.117-0.096-0.014-0.014-0.117-0.096-0.014-0.014-0.117-0.096-0.014-0.014-0.123-0.096-0.014-0.014-0.117-0.089-0.014-0.014-0.123-0.096-0.014-0.014-0.123-0.096-0.014-0.014-0.123-0.096-0.014-0.014-0.123-0.096-0.014-0.007-0.123-0.089-0.014-0.007-0.123-0.089-0.014-0.007-0.123-0.089-0.021-0.007-0.123-0.089-0.014-0.014-0.123-0.089-0.014-0.014-0.123-0.089-0.014-0.014-0.123-0.089-0.021-0.014-0.123-0.089-0.014-0.007-0.13-0.089-0.021-0.007-0.13-0.089-0.014-0.014-0.13-0.089-0.014-0.014-0.13-0.082-0.014-0.014-0.13-0.089-0.014-0.014-0.123-0.089-0.021-0.014-0.13-0.082-0.014-0.007-0.13-0.082-0.021-0.007-0.13-0.082-0.014-0.014-0.13-0.082-0.014-0.014-0.13-0.082-0.014-0.007-0.13-0.082-0.021-0.007-0.13-0.082-0.014-0.014-0.13-0.082-0.021-0.007-0.13-0.082-0.021-0.014-0.13-0.082-0.021-0.014-0.137-0.082-0.014-0.014-0.13-0.075-0.021-0.007-0.13-0.075-0.014-0.014-0.137-0.082-0.021-0.014-0.137-0.075-0.014-0.014-0.13-0.075-0.021-0.007-0.137-0.075-0.021-0.007-0.137-0.075-0.014-0.007-0.13-0.075-0.007-0.007-82.462-45.799-0.137-0.062-0.014-0.007-0.137-0.055-0.014-0.007-0.137-0.062-0.014-0.014-0.137-0.062-0.021-0.007-0.13-0.055-0.014-0.007-0.137-0.062-0.014-0.007-0.137-0.055-0.014-0.007-0.137-0.055-0.014-0.007-0.137-0.055-0.021-0.007-0.137-0.055-0.021-0.007-0.137-0.055-0.021-0.007-0.13-0.055-0.014-0.007-0.137-0.048-0.014-0.007-0.137-0.055-0.021-0.007-0.137-0.055-0.021-0.007-0.137-0.055-0.021-0.007-0.137-0.048-0.021-0.007-0.137-0.055-0.021-0.007-0.137-0.048-0.014-0.007-0.137-0.048-0.021-0.007-0.137-0.048-0.021-0.007-0.137-0.048-0.021-0.007-0.137-0.048-0.014-0.007-0.274-0.096-0.021-0.007-0.144-0.041-0.021-0.007-0.137-0.041-0.014-0.007-0.137-0.048-0.014-0.007-0.144-0.041-0.021-0.007-0.137-0.041-0.021-0.007-0.137-0.041-0.165-0.055-0.027-0.007-0.274-0.082-0.034-0.014-0.281-0.082-0.034-0.007-0.281-0.082-0.034-0.007-0.281-0.075-0.034-0.014-0.281-0.075-0.034-0.007-0.281-0.075-0.041-0.007-0.281-0.069-0.034-0.007-0.281-0.069-0.041-0.007-0.281-0.069-0.034-0.007-0.281-0.062-0.034-0.007-0.288-0.062-0.041-0.007-0.322-0.069-0.288-0.055-0.034-0.007-0.281-0.048-0.034-0.007-0.315-0.062-0.288-0.048-0.034-0.007-0.288-0.048-0.034-0.007-0.288-0.041-0.034-0.007-0.288-0.041-0.034-0.007-0.288-0.041-0.034-0.007-0.288-0.041-0.041-0.007-0.288-0.034-0.034-0.007-0.288-0.034-0.034-0.007-0.288-0.034-0.288-0.027h-0.034l-0.288-0.021-0.034-0.007-0.288-0.021h-0.034l-0.288-0.021h-0.034l-0.288-0.021-0.041-0.007-0.288-0.021h-0.034l-0.288-0.014h-0.034l-0.288-0.014h-0.041l-0.288-0.007h-0.034l-0.288-0.007h-0.034l-0.288-0.007h-1.015l-0.576 0.014h-0.041l-0.294 0.007-0.288 0.014-0.034 0.007-0.288 0.014h-0.034l-0.288 0.014-0.034 0.007-0.288 0.014h-0.034l-0.288 0.021-0.034 0.007-0.288 0.027-0.041 0.007-0.288 0.027-0.041 0.007-0.288 0.027-0.034 0.007-0.288 0.027h-0.034l-0.288 0.027-0.034 0.007-0.288 0.034h-0.041l-0.288 0.034-0.041 0.007-0.288 0.041-0.034 0.007-0.288 0.041-0.034 0.007-0.288 0.041-0.034 0.007-0.288 0.041-0.034 0.007-0.281 0.048h-0.021l-0.325 0.062-1.273 0.247-0.281 0.062-0.041 0.014-0.281 0.062-0.034 0.007-0.281 0.069-0.038 0.014-0.281 0.069-0.034 0.014-0.281 0.075-0.034 0.007-0.281 0.075-0.034 0.014-0.281 0.075-0.034 0.014-0.281 0.075-0.034 0.014-0.281 0.082-0.041 0.014-0.281 0.082-0.034 0.014-0.281 0.082-0.034 0.014-0.281 0.082-0.034 0.007-0.273 0.089-0.027 0.007-0.144 0.048h-0.019l-0.137 0.041-0.021 0.007-0.137 0.048-0.021 0.007-0.137 0.048-0.021 0.007-0.137 0.048-0.021 0.007-0.137 0.048-0.021 0.007-0.137 0.048-0.014 0.007-0.137 0.048-0.014 0.007-0.137 0.048-0.014 0.007-0.137 0.055-0.021 0.007-0.137 0.055-0.021 0.007-0.137 0.055-0.014 0.007-0.137 0.055-0.021 0.007-0.137 0.055-0.014 0.007-0.137 0.055-0.021 0.007-0.137 0.055-0.014 0.007-0.137 0.055-0.014 0.007-0.137 0.055-0.021 0.007-0.137 0.055-0.021 0.007-0.137 0.055-0.021 0.007-0.137 0.055-0.021 0.007-0.137 0.055-0.014 0.007-0.137 0.062-0.021 0.007-0.13 0.062-0.014 0.007-0.137 0.062-0.014 0.007-0.137 0.062-0.014 0.007-0.137 0.055-0.021 0.007-0.13 0.062-0.021 0.007-0.137 0.062-0.021 0.007-0.13 0.062-0.014 0.014-0.13 0.062-0.014 0.007-0.13 0.062-0.014 0.007-0.137 0.062-0.014 0.014-0.137 0.069-0.014 0.014-0.13 0.062-0.021 0.007-0.137 0.062-0.014 0.014-0.13 0.069-0.021 0.007-0.151 0.075-0.13 0.069-0.021 0.007-0.13 0.069-0.014 0.007-0.13 0.069-0.021 0.014-0.13 0.069-0.014 0.007-0.13 0.069-0.014 0.007-0.13 0.069-0.021 0.014-0.13 0.069-0.014 0.007-0.13 0.075-0.021 0.014-0.13 0.069-0.021 0.007-0.13 0.069-0.021 0.007-0.13 0.069-0.021 0.007-0.13 0.075-0.021 0.007-0.123 0.075-0.021 0.007-0.123 0.075-0.007 0.007-74.361 43.547-0.151 0.096-0.014 0.014-0.151 0.103-0.014 0.014-0.151 0.103-0.014 0.014-0.144 0.103-0.021 0.014-0.147 0.103-0.014 0.014-0.144 0.103-0.017 0.014-0.144 0.103-0.019 0.014-0.144 0.103-0.014 0.007-0.144 0.103-0.014 0.014-0.142 0.103-0.014 0.014-0.141 0.103-0.021 0.007-0.144 0.103-0.014 0.014-0.144 0.11-0.014 0.014-0.144 0.103-0.018 0.014-0.162 0.123-0.137 0.11-0.014 0.014-0.137 0.11-0.014 0.007-0.137 0.11-0.014 0.014-0.137 0.11-0.014 0.014-0.137 0.11-0.014 0.014-0.137 0.11-0.014 0.014-0.137 0.11-0.014 0.014-0.137 0.11-0.014 0.014-0.137 0.117-0.014 0.007-0.137 0.11-0.014 0.014-0.133 0.11-0.014 0.014-0.137 0.117-0.014 0.014-0.137 0.11-0.014 0.014-0.137 0.117-0.014 0.007-0.134 0.11-0.014 0.014-0.13 0.11-0.014 0.014-0.13 0.117-0.014 0.014-0.13 0.117-0.014 0.014-0.13 0.117-0.014 0.014-0.13 0.117-0.014 0.014-0.13 0.117-0.014 0.014-0.13 0.123-0.014 0.007-0.13 0.117-0.021 0.014-0.127 0.123-0.014 0.014-0.13 0.117-0.014 0.014-0.128 0.123-0.288 0.288-0.13 0.123-0.014 0.014-0.13 0.123-0.014 0.007-0.823 0.823-0.117 0.123-0.151 0.151-0.123 0.13-0.014 0.014-0.117 0.13-0.014 0.014-0.117 0.13-0.014 0.014-0.123 0.13-0.014 0.014-0.117 0.13-0.014 0.014-0.117 0.13-0.014 0.014-0.117 0.13-0.014 0.014-0.117 0.13-0.014 0.014-0.117 0.13-0.007 0.014-0.11 0.13-0.014 0.014-0.117 0.13-0.014 0.014-0.123 0.137-0.014 0.014-0.117 0.13-0.014 0.014-0.117 0.137-0.014 0.014-0.11 0.13-0.007 0.014-0.11 0.13-0.014 0.014-0.11 0.137-0.014 0.014-0.117 0.137-0.014 0.014-0.11 0.13-0.014 0.014-0.117 0.13-0.014 0.014-0.11 0.13-0.014 0.014-0.11 0.137-0.014 0.014-0.11 0.137-0.014 0.014-0.11 0.137-0.014 0.014-0.11 0.137-0.014 0.014-0.11 0.137-0.007 0.014-0.103 0.137-0.014 0.014-0.103 0.137-0.007 0.014-0.103 0.137-0.014 0.014-0.103 0.144-0.014 0.014-0.103 0.137-0.014 0.014-0.103 0.137-0.007 0.014-0.103 0.144-0.007 0.014-0.103 0.144-0.007 0.014-0.103 0.137-0.007 0.014-0.103 0.137-0.014 0.014-0.103 0.144-0.014 0.014-0.103 0.144-0.11 0.165-0.014 0.014-0.096 0.144-0.014 0.014-0.096 0.144-0.014 0.014-0.096 0.144-0.007 0.014-0.206 0.309-0.014 0.014-0.096 0.144-0.014 0.014-0.096 0.144-0.014 0.014-0.096 0.144-0.014 0.014-0.089 0.144-0.007 0.014-0.089 0.144-0.219 0.329-0.007 0.014-0.096 0.151-0.007 0.021-0.089 0.144-0.014 0.014-0.089 0.144-0.014 0.014-0.089 0.151-0.014 0.021-0.089 0.144-0.007 0.014-0.089 0.151-0.007 0.014-0.089 0.144-0.014 0.021-0.089 0.151-0.014 0.021-0.089 0.151-0.014 0.021-0.082 0.151-0.014 0.014-0.089 0.151-0.007 0.014-0.082 0.151-0.007 0.014-0.082 0.151-0.007 0.021-0.082 0.151-0.014 0.021-0.082 0.151-0.007 0.021-0.082 0.158-0.007 0.014-0.082 0.151-0.007 0.021-0.082 0.151-0.007 0.021-0.082 0.151-0.007 0.021-0.075 0.158-0.007 0.014-0.082 0.158-0.007 0.021-0.082 0.158-0.014 0.014-0.075 0.158-0.082 0.165-0.007 0.021-0.075 0.158v-0.007l-0.075 0.158-0.014 0.021-0.075 0.158-0.007 0.021-0.075 0.151-0.007 0.021-0.075 0.158-0.007 0.014-0.075 0.158-0.007 0.014-0.069 0.158-0.007 0.014-0.075 0.158-0.007 0.014-0.075 0.158-0.007 0.014-0.075 0.158-0.007 0.021-0.069 0.158-0.007 0.014-0.075 0.158-0.007 0.021-0.075 0.158-0.007 0.014-0.069 0.158-0.007 0.014-0.069 0.158-0.007 0.021-0.069 0.158-0.007 0.014-0.062 0.158-0.007 0.014-0.069 0.158-0.007 0.021-0.062 0.165-0.007 0.014-0.069 0.158-0.007 0.021-0.062 0.151-0.007 0.021-0.069 0.165-0.007 0.014-0.062 0.165-0.007 0.021-0.062 0.165-0.007 0.014-0.062 0.165-0.007 0.021-0.062 0.165-0.007 0.014-0.062 0.165-0.007 0.014-0.062 0.185-0.062 0.165-0.007 0.014-0.123 0.37-0.062 0.165-0.062 0.185-0.007 0.014-0.055 0.165-0.007 0.014-0.302 0.905-0.006 0.020-0.048 0.165-0.007 0.014-0.055 0.171-0.007 0.021-0.048 0.171-0.007 0.021-0.048 0.165-0.007 0.021-0.048 0.165-0.007 0.021-0.048 0.171-0.007 0.021-0.048 0.171-0.007 0.014-0.048 0.171-0.007 0.007-0.048 0.171-0.007 0.014-0.041 0.165-0.007 0.014-0.041 0.165v0.014l-0.048 0.171v0.021l-0.041 0.165-0.007 0.021-0.041 0.165-0.007 0.021-0.041 0.171h0.007l-0.041 0.171-0.007 0.014-0.041 0.171-0.007 0.014-0.041 0.171-0.007 0.014-0.041 0.171 0.007 0.007-0.041 0.171-0.007 0.021-0.041 0.171-0.007 0.021-0.034 0.171-0.007 0.021-0.041 0.171-0.007 0.014-0.034 0.171-0.007 0.021-0.034 0.171-0.007 0.021-0.069 0.343v0.021l-0.034 0.178v0.021l-0.034 0.171-0.007 0.021-0.041 0.165v0.021l-0.034 0.185-0.007 0.021-0.034 0.178-0.007 0.021-0.027 0.171-0.007 0.021-0.027 0.171v0.021l-0.027 0.171v0.021l-0.027 0.171-0.007 0.021-0.027 0.171v-0.007l-0.027 0.171v0.014l-0.027 0.171v0.021l-0.027 0.171v0.021l-0.027 0.171v0.014l-0.021 0.178v0.021l-0.021 0.171v0.014l-0.027 0.178-0.007 0.021-0.021 0.171v0.021l-0.021 0.178-0.007 0.021-0.021 0.178v0.021l-0.021 0.178-0.007 0.021-0.021 0.178v0.021l-0.021 0.178-0.007 0.014-0.021 0.178-0.014 0.178v0.021l-0.021 0.178-0.007 0.021-0.021 0.178v0.021l-0.014 0.178-0.007 0.021-0.014 0.178v0.021l-0.014 0.178v0.021l-0.027 0.357v0.021l-0.014 0.178v0.021l-0.014 0.178v0.222l-0.007 0.178v0.021l-0.007 0.178v0.021l-0.007 0.178-0.007 0.021-0.007 0.178v0.192l-0.007 0.178v0.021l-0.007 0.178v86.831l0.007 0.171v0.219l0.007 0.178v0.631l0.007 0.178v0.014l0.007 0.178v0.021l0.007 0.178v0.021l0.007 0.178v0.014l0.007 0.178v0.021l0.007 0.178v0.021l0.014 0.185v0.021l0.014 0.178v0.014l0.007 0.178v0.021l0.014 0.178v0.021l0.007 0.178v0.021l0.007 0.178v0.021l0.014 0.178v0.021l0.014 0.178v0.021l0.021 0.178v0.021l0.014 0.178 0.007 0.014 0.014 0.178v0.014l0.021 0.178v0.014l0.021 0.178 0.007 0.021 0.021 0.178v0.021l0.021 0.178v0.014l0.021 0.178v0.014l0.021 0.178 0.007 0.021 0.021 0.178v0.021l0.021 0.171v0.021l0.021 0.178v0.021l0.021 0.178 0.007 0.021 0.021 0.171v0.021l0.027 0.178v0.021l0.021 0.178 0.007 0.021 0.021 0.171 0.007 0.021 0.027 0.178 0.007 0.014 0.027 0.178v0.014l0.027 0.178v0.014l0.027 0.171 0.007 0.021 0.027 0.171v0.021l0.048 0.178 0.007 0.021 0.027 0.171v0.021l0.034 0.171v0.014l0.034 0.171v0.014l0.034 0.178 0.007 0.014 0.034 0.171 0.007 0.014 0.034 0.171 0.007 0.021 0.034 0.171 0.007 0.021 0.034 0.171v0.021l0.034 0.171v0.014l0.034 0.171 0.007 0.014 0.034 0.171 0.007 0.014 0.041 0.171v0.021l0.041 0.171 0.007 0.021 0.034 0.171 0.007 0.021 0.041 0.171v0.021l0.041 0.171 0.007 0.021 0.041 0.171v0.021l0.041 0.171 0.007 0.014 0.041 0.171v0.014l0.041 0.171 0.007 0.021 0.048 0.171v0.014l0.048 0.171v0.014l0.048 0.171 0.007 0.021 0.048 0.171v0.021l0.048 0.171 0.007 0.021 0.048 0.165 0.007 0.014 0.048 0.171 0.007 0.017 0.048 0.171 0.007 0.021 0.048 0.167 0.007 0.014 0.055 0.171 0.007 0.014 0.048 0.165 0.007 0.014 0.048 0.167 0.007 0.014 0.048 0.17 0.007 0.021 0.055 0.167 0.062 0.185v0.014l0.055 0.165v0.021l0.055 0.165 0.007 0.014 0.24 0.72 0.007 0.014 0.062 0.165 0.007 0.014 0.055 0.165 0.007 0.017 0.055 0.165 0.007 0.014 0.062 0.165 0.007 0.014 0.062 0.165v0.014l0.062 0.165 0.007 0.014 0.062 0.165 0.007 0.021 0.062 0.165 0.007 0.014 0.062 0.165 0.007 0.021 0.069 0.158 0.007 0.014 0.069 0.165 0.007 0.014 0.069 0.165 0.007 0.021 0.069 0.165 0.007 0.021 0.069 0.165 0.007 0.021 0.069 0.165 0.007 0.021 0.069 0.165 0.007 0.021 0.069 0.165 0.007 0.017 0.069 0.158 0.007 0.021 0.069 0.158 0.007 0.021 0.069 0.165 0.007 0.014 0.075 0.165 0.007 0.014 0.075 0.158 0.007 0.014 0.069 0.158 0.007 0.021 0.075 0.158 0.007 0.014 0.075 0.158 0.007 0.014 0.075 0.158 0.007 0.014 0.075 0.158 0.007 0.021 0.075 0.158 0.007 0.014 0.075 0.158 0.007 0.021 0.075 0.158 0.007 0.014 0.075 0.158 0.007 0.014 0.075 0.158 0.007 0.014 0.075 0.158 0.007 0.014 0.082 0.151 0.007 0.014 0.082 0.158 0.014 0.021 0.082 0.158 0.007 0.014 0.082 0.158 0.007 0.021 0.082 0.151 0.007 0.014 0.082 0.151 0.007 0.014 0.082 0.151 0.007 0.021 0.082 0.151 0.014 0.014 0.082 0.151 0.007 0.021 0.082 0.151 0.014 0.014 0.082 0.151 0.007 0.014 0.082 0.151 0.014 0.021 0.089 0.151 0.007 0.014 0.082 0.151 0.007 0.014 0.089 0.151 0.007 0.014 0.089 0.151 0.007 0.014 0.089 0.151 0.014 0.014 0.089 0.151 0.007 0.014 0.089 0.151 0.014 0.014 0.089 0.151 0.007 0.014 0.089 0.151 0.014 0.014 0.089 0.151 0.007 0.014 0.096 0.151 0.014 0.021 0.096 0.151 0.007 0.014 0.089 0.144 0.014 0.014 0.096 0.144 0.014 0.014 0.089 0.151 0.007 0.014 0.096 0.144 0.007 0.014 0.096 0.144 0.014 0.014 0.096 0.151 0.014 0.014 0.096 0.144 0.007 0.021 0.096 0.144 0.007 0.014 0.096 0.144 0.007 0.014 0.103 0.144 0.014 0.014 0.096 0.144 0.014 0.014 0.103 0.144 0.007 0.014 0.103 0.144 0.007 0.014 0.103 0.144 0.007 0.014 0.103 0.144 0.014 0.014 0.103 0.144 0.007 0.014 0.103 0.144 0.014 0.014 0.103 0.137 0.007 0.014 0.103 0.144 0.014 0.014 0.103 0.137 0.014 0.014 0.103 0.137 0.014 0.014 0.103 0.137 0.014 0.014 0.103 0.137 0.007 0.014 0.103 0.137 0.014 0.014 0.11 0.137 0.014 0.014 0.11 0.137 0.014 0.014 0.11 0.137 0.014 0.014 0.11 0.137 0.014 0.014 0.11 0.137 0.014 0.021 0.11 0.137 0.007 0.014 0.11 0.137 0.014 0.014 0.11 0.137 0.014 0.014 0.11 0.13 0.014 0.014 0.11 0.137 0.014 0.014 0.11 0.137 0.014 0.014 0.117 0.13 0.014 0.014 0.11 0.137 0.014 0.014 0.11 0.13 0.014 0.014 0.11 0.137 0.014 0.014 0.117 0.137 0.007 0.014 0.117 0.13 0.014 0.014 0.117 0.13 0.014 0.014 0.117 0.13 0.014 0.014 0.117 0.13 0.007 0.014 0.117 0.13 0.014 0.014 0.117 0.13 0.014 0.014 0.117 0.13 0.007 0.014 0.117 0.13 0.014 0.014 0.123 0.13 0.007 0.014 0.123 0.13 0.014 0.014 0.13 0.123 0.014 0.014 0.123 0.13 0.014 0.014 0.123 0.13 0.425 0.425 0.13 0.123 0.974 0.974 0.13 0.117 0.014 0.014 0.13 0.117 0.014 0.014 0.13 0.123 0.014 0.014 0.13 0.123 0.014 0.007 0.13 0.117 0.014 0.007 0.13 0.117 0.014 0.014 0.13 0.117 0.014 0.014 0.13 0.117 0.014 0.014 0.13 0.117 0.014 0.007 0.137 0.117 0.014 0.014 0.137 0.117 0.014 0.014 0.137 0.117 0.014 0.014 0.137 0.11 0.014 0.014 0.137 0.11 0.014 0.014 0.13 0.11 0.014 0.014 0.137 0.11 0.014 0.014 0.137 0.11 0.014 0.007 0.137 0.11 0.014 0.014 0.137 0.11 0.014 0.014 0.137 0.11 0.014 0.014 0.144 0.11 0.014 0.014 0.137 0.11 0.014 0.014 0.144 0.11 0.014 0.014 0.144 0.11 0.014 0.014 0.137 0.11 0.014 0.007 0.144 0.11 0.014 0.014 0.137 0.11 0.014 0.014 0.144 0.103 0.014 0.014 0.144 0.11 0.014 0.014 0.144 0.103 0.014 0.007 0.144 0.103 0.021 0.014 0.144 0.103 0.014 0.007 0.144 0.103 0.014 0.014 0.144 0.11 0.014 0.007 0.151 0.103 0.014 0.014 0.144 0.103 0.021 0.007 0.144 0.103 0.014 0.007 0.144 0.103 0.014 0.007 0.151 0.103 0.014 0.014 0.144 0.103 0.014 0.007 0.151 0.096 0.014 0.007 0.144 0.103 0.021 0.014 0.151 0.096 0.014 0.014 0.151 0.103 0.014 0.014 0.151 0.096 0.021 0.007 0.151 0.096 0.014 0.014 0.151 0.096 0.014 0.007 0.151 0.096 0.014 0.007 0.151 0.096 0.014 0.007 0.151 0.096 0.021 0.007 0.151 0.089h0.007l71.834 44.176 0.151 0.082 0.021 0.007 0.158 0.082 0.021 0.007 0.158 0.082 0.014 0.007 0.158 0.075 0.021 0.007 0.158 0.075 0.021 0.007 0.151 0.075 0.021 0.007 0.158 0.075 0.014 0.007 0.158 0.075 0.021 0.007 0.158 0.075 0.021 0.014 0.158 0.075 0.021 0.007 0.158 0.075 0.021 0.007 0.158 0.069 0.021 0.007 0.158 0.069 0.014 0.014 0.158 0.069 0.014 0.007 0.158 0.069 0.021 0.014 0.158 0.069 0.021 0.007 0.158 0.069 0.021 0.007 0.158 0.069 0.021 0.007 0.158 0.069 0.021 0.007 0.158 0.069 0.021 0.007 0.158 0.062 0.021 0.007 0.158 0.069 0.021 0.007 0.165 0.069 0.021 0.007 0.165 0.069 0.021 0.014 0.158 0.062 0.014 0.007 0.165 0.062 0.021 0.007 0.158 0.062 0.014 0.007 0.165 0.062 0.206 0.069 0.165 0.062 0.021 0.007 0.165 0.062 0.391 0.13 0.158 0.055 0.206 0.069 0.158 0.055 0.185 0.062 0.014 0.007 0.556 0.185 0.165 0.048 0.014 0.007 0.165 0.048 0.021 0.007 0.165 0.048h0.021l0.165 0.048 0.021 0.007 0.165 0.048 0.014 0.007 0.165 0.048 0.014 0.007 0.165 0.048 0.021 0.007 0.165 0.048 0.021 0.007 0.165 0.048 0.021 0.007 0.165 0.041 0.021 0.007 0.165 0.041 0.014 0.007 0.165 0.048 0.016 0.007 0.171 0.041h0.014l0.165 0.048h0.021l0.169 0.041 0.021 0.007 0.171 0.041 0.021 0.007 0.165 0.041h0.021l0.171 0.041h0.021l0.165 0.041 0.021 0.007 0.165 0.034 0.021 0.007 0.165 0.041 0.021 0.007 0.165 0.034h0.021l0.165 0.034 0.021 0.007 0.165 0.034h0.014l0.165 0.034 0.021 0.007 0.171 0.034h0.014l0.171 0.034 0.014 0.007 0.171 0.034 0.021 0.007 0.171 0.034 0.021 0.007 0.171 0.027h0.021l0.165 0.027 0.021 0.007 0.171 0.034 0.021 0.007 0.171 0.027h0.021l0.165 0.027 0.021 0.007 0.171 0.027 0.021 0.007 0.165 0.027h0.014l0.165 0.027h0.021l0.171 0.027 0.021 0.007 0.171 0.027h0.021l0.171 0.027h0.021l0.171 0.027h0.021l0.171 0.021h0.021l0.165 0.021h0.021l0.171 0.021 0.021 0.007 0.171 0.021 0.014 0.007 0.171 0.014h0.021l0.165 0.021h0.021l0.165 0.021h0.021l0.171 0.021h0.021l0.171 0.021h0.021l0.165 0.014h0.021l0.171 0.021 0.021 0.007 0.171 0.014 0.021 0.007 0.171 0.014h0.021l0.169 0.014h0.021l0.171 0.014h0.021l0.171 0.007 0.021 0.007 0.171 0.014 0.014 0.007 0.171 0.007h0.021l0.171 0.014h0.014l0.171 0.007h0.021l0.171 0.007h0.021l0.171 0.007h0.021l0.171 0.007 0.021 0.007 0.171 0.007h0.021l0.171 0.007h0.021l0.171 0.007h0.021l0.171 0.007h0.021l0.171 0.007h0.014l0.171 0.007h0.213l0.171 0.007h0.398l0.036 0.060zM116.604 562.96h-0.112l-0.112-0.001h-0.112l-0.233-0.005-0.117-0.003-0.576-0.034-0.556-0.034-0.233-0.027-0.11-0.014-0.35-0.041-0.11-0.014-0.117-0.014-0.219-0.027-0.117-0.014-0.439-0.055-0.117-0.014-0.11-0.021-0.11-0.014-0.117-0.021-0.658-0.123-0.11-0.014-0.117-0.021-0.11-0.021-0.117-0.021-0.329-0.062-0.329-0.082-0.219-0.041-1.097-0.274-0.11-0.034-0.11-0.027-0.11-0.034-0.103-0.034-0.549-0.171-0.103-0.034-0.11-0.034-0.11-0.041-0.219-0.069-0.11-0.041-0.219-0.069-0.103-0.034-0.329-0.123-0.103-0.041-0.11-0.041-0.206-0.082-0.11-0.048-0.329-0.123-0.103-0.048-0.103-0.041-0.11-0.048-0.309-0.144-0.11-0.048-0.103-0.048-0.11-0.048-0.309-0.144-0.11-0.048-0.206-0.096-0.206-0.11-0.103-0.048-0.103-0.055-0.103-0.048-0.514-0.274-0.103-0.062-0.096-0.055-0.103-0.055-0.096-0.055-0.309-0.185-0.096-0.055-0.103-0.062-0.096-0.062-0.206-0.123-0.11-0.069-70.514-43.553-0.576-0.412-0.096-0.075-0.096-0.069-0.576-0.453-0.089-0.075-0.192-0.151-0.089-0.075-0.192-0.151-0.089-0.075-0.096-0.075-0.178-0.151-0.178-0.165-0.178-0.151-0.981-0.905-0.082-0.082-0.089-0.082-0.082-0.089-0.089-0.082-0.082-0.089-0.082-0.082-0.082-0.089-0.082-0.082-0.165-0.178-0.171-0.171-0.247-0.267-0.075-0.089-0.247-0.267-0.082-0.096-0.082-0.089-0.151-0.178-0.082-0.096-0.075-0.089-0.082-0.089-0.075-0.096-0.075-0.089-0.453-0.576-0.069-0.096-0.302-0.384-0.206-0.288-0.069-0.103-0.137-0.192-0.069-0.103-0.274-0.384-0.062-0.103-0.069-0.103-0.069-0.096-0.069-0.103-0.062-0.103-0.062-0.096-0.247-0.412-0.137-0.206-0.617-1.029-0.062-0.11-0.123-0.206-0.062-0.11-0.055-0.103-0.165-0.329-0.11-0.206-0.055-0.11-0.055-0.103-0.055-0.11-0.048-0.103-0.274-0.549-0.432-0.988-0.041-0.11-0.048-0.11-0.048-0.117-0.144-0.329-0.041-0.11-0.048-0.117-0.048-0.11-0.041-0.11-0.041-0.117-0.041-0.11-0.041-0.117-0.041-0.11-0.123-0.35-0.034-0.117-0.041-0.11-0.041-0.117-0.034-0.117-0.034-0.11-0.034-0.117-0.041-0.117-0.069-0.219-0.034-0.117-0.041-0.117-0.034-0.117-0.034-0.11-0.171-0.583-0.055-0.233-0.034-0.117-0.027-0.117-0.034-0.117-0.055-0.233-0.027-0.123-0.165-0.7-0.021-0.117-0.027-0.117-0.021-0.117-0.082-0.494-0.041-0.233-0.041-0.247-0.062-0.35-0.021-0.123-0.027-0.247-0.014-0.117-0.021-0.123-0.021-0.117-0.082-0.741-0.014-0.117-0.027-0.247-0.007-0.123-0.027-0.247-0.069-1.235v-0.123l-0.014-0.247v-0.123l-0.007-0.123v-86.968l0.007-0.123v-0.37l0.007-0.117 0.055-0.988 0.014-0.123 0.021-0.37 0.014-0.117 0.014-0.123 0.014-0.117 0.007-0.123 0.055-0.466 0.014-0.123 0.027-0.233 0.027-0.247 0.014-0.117 0.014-0.123 0.082-0.466 0.021-0.123 0.082-0.466 0.027-0.117 0.062-0.35 0.055-0.233 0.021-0.117 0.192-0.816 0.027-0.11 0.034-0.11 0.082-0.35 0.034-0.117 0.027-0.11 0.027-0.117 0.027-0.11 0.034-0.117 0.027-0.11 0.069-0.233 0.034-0.11 0.069-0.233 0.034-0.11 0.034-0.117 0.165-0.439 0.034-0.11 0.041-0.117 0.37-0.988 0.096-0.219 0.206-0.549 0.528-1.207 0.048-0.103 0.055-0.11 0.055-0.103 0.055-0.11 0.329-0.617 0.062-0.103 0.165-0.309 0.123-0.206 0.165-0.309 0.062-0.103 0.055-0.103 0.062-0.096 0.062-0.103 0.062-0.096 0.123-0.206 0.247-0.384 0.123-0.206 0.069-0.096 0.062-0.096 0.062-0.103 0.123-0.192 0.137-0.192 0.069-0.103 0.48-0.672 0.151-0.192 0.274-0.384 0.151-0.178 0.075-0.096 0.075-0.089 0.075-0.096 0.83-0.981 0.165-0.178 0.075-0.089 0.082-0.082 0.082-0.089 0.082-0.082 0.082-0.089 0.075-0.089 0.082-0.089 0.329-0.329 0.082-0.089 0.412-0.412 0.089-0.082 0.165-0.165 0.089-0.082 0.165-0.165 0.089-0.082 0.178-0.151 0.178-0.165 0.178-0.151 0.178-0.165 0.089-0.075 0.288-0.226 0.178-0.151 0.096-0.075 0.089-0.075 0.096-0.069 0.089-0.075 0.288-0.226 0.089-0.069 0.096-0.075 0.096-0.069 0.192-0.151 0.192-0.137 0.103-0.069 0.576-0.412 0.103-0.069 0.103-0.062 0.103-0.069 0.096-0.069 0.206-0.137 0.096-0.062 0.514-0.309 0.11-0.062 0.206-0.123 0.117-0.069 73.675-42.942 0.247-0.103 0.165-0.082 0.082-0.034 0.082-0.041 0.741-0.309 0.082-0.027 0.089-0.034 0.329-0.137 0.082-0.027 0.082-0.034 0.165-0.055 0.089-0.027 0.082-0.027 0.075-0.027 0.178-0.055 0.171-0.055 1.2-0.336 0.514-0.123 0.171-0.034 0.171-0.041 0.514-0.103 0.171-0.027 0.171-0.034 0.343-0.055 0.178-0.027 0.171-0.027 0.535-0.062 0.178-0.014 0.171-0.014 0.178-0.014 0.171-0.014 0.528-0.041 0.521-0.021h0.878l0.178 0.007h0.178l0.357 0.014 0.357 0.027 0.178 0.007 0.706 0.055 0.357 0.041 0.171 0.021 0.178 0.021 0.171 0.027 0.178 0.027 0.171 0.027 0.178 0.027 0.171 0.027 0.171 0.034 0.171 0.027 0.178 0.034 0.171 0.034 0.171 0.041 0.171 0.034 0.686 0.165 0.686 0.192 0.178 0.055 0.247 0.082 0.089 0.027 0.082 0.027 0.089 0.027 0.165 0.055 0.089 0.027 0.165 0.055 0.089 0.034 0.082 0.027 0.089 0.027 0.082 0.034 0.247 0.082 0.089 0.034 0.082 0.027 0.823 0.343 0.165 0.082 0.082 0.034 0.165 0.082 0.082 0.034 0.247 0.123 0.075 0.041 0.658 0.329 0.075 0.041 0.165 0.082 0.089 0.048 81.673 45.658 0.075 0.055 0.082 0.055 0.377 0.274 0.082 0.055 0.075 0.062 0.075 0.055 0.075 0.062 0.075 0.055 0.226 0.185 0.151 0.11 0.075 0.062 0.069 0.062 0.151 0.123 0.069 0.055 0.075 0.062 0.075 0.069 0.069 0.062 0.075 0.062 0.137 0.123 0.069 0.069 0.075 0.062 0.069 0.069 0.069 0.062 0.137 0.137 0.069 0.062 0.069 0.069 0.069 0.062 0.274 0.274 0.062 0.069 0.069 0.069 0.062 0.069 0.206 0.206 0.247 0.274 0.069 0.069 0.432 0.48 0.185 0.226 0.185 0.206 0.062 0.075 0.062 0.069 0.062 0.075 0.055 0.069 0.11 0.151 0.055 0.069 0.062 0.075 0.658 0.905 0.048 0.075 0.048 0.082 0.055 0.082 0.055 0.075 0.096 0.151 0.055 0.082 0.055 0.075 0.048 0.075 0.192 0.329 0.048 0.075 0.096 0.165 0.048 0.075 0.144 0.247 0.082 0.165 0.096 0.165 0.041 0.082 0.096 0.165 0.082 0.165 0.041 0.089 0.041 0.082 0.096 0.165 0.123 0.247 0.041 0.089 0.082 0.165 0.041 0.089 0.082 0.165 0.123 0.267 0.041 0.082 0.034 0.082 0.103 0.267 0.034 0.082 0.103 0.267 0.034 0.082 0.171 0.446 0.11 0.357 0.137 0.357 0.027 0.089 0.034 0.089 0.055 0.178 0.034 0.089 0.11 0.357 0.021 0.089 0.11 0.357 0.021 0.089 0.021 0.096 0.027 0.089 0.021 0.089 0.021 0.096 0.027 0.089 0.062 0.267 0.021 0.096 0.041 0.178 0.014 0.096 0.021 0.096 0.021 0.089 0.014 0.096 0.021 0.089 0.041 0.192 0.021 0.089 0.021 0.096 0.014 0.096 0.021 0.096 0.014 0.089 0.021 0.089 0.096 0.672 0.007 0.096 0.014 0.089 0.007 0.096 0.014 0.096 0.014 0.089 0.014 0.096 0.028 0.384 0.014 0.096 0.077 1.056v0.192l0.007 0.096v94.945l-0.007 0.084-0.007 0.089v0.089l-0.007 0.089v0.089l-0.007 0.089v0.089l-0.007 0.089-0.007 0.082-0.021 0.267-0.007 0.082-0.007 0.089-0.007 0.082-0.007 0.089-0.014 0.089-0.014 0.164-0.014 0.082-0.007 0.082-0.014 0.089-0.007 0.082-0.014 0.082-0.014 0.089-0.007 0.089-0.007 0.082-0.014 0.075-0.027 0.18-0.021 0.175-0.027 0.178-0.027 0.171-0.069 0.343-0.027 0.171-0.034 0.171-0.288 1.2-0.144 0.514-0.055 0.171-0.048 0.165-0.219 0.658-0.123 0.329-0.062 0.158-0.185 0.494-0.069 0.158-0.062 0.165-0.206 0.473-0.075 0.158-0.069 0.158-0.151 0.315-0.075 0.151-0.082 0.158-0.075 0.158-0.082 0.158-0.412 0.754-0.267 0.453-0.096 0.151-0.178 0.288-0.576 0.864-0.514 0.686-0.439 0.549-0.11 0.13-0.117 0.13-0.11 0.13-0.583 0.652-0.617 0.617-0.261 0.247-0.652 0.583-0.137 0.117-0.274 0.219-0.13 0.11-0.144 0.117-0.062 0.048-0.274 0.219-0.069 0.048-0.137 0.11-0.151 0.11-0.206 0.165-0.069 0.048-0.069 0.055-0.075 0.055-0.137 0.096-0.075 0.055-0.151 0.096-0.069 0.048-0.679 0.432-0.151 0.082-0.089 0.048-80.186 46.893-0.107 0.048-0.103 0.048-0.103 0.041-0.106 0.048-0.104 0.048-0.103 0.048-0.106 0.041-0.103 0.041-0.11 0.041-0.106 0.048-0.108 0.041-0.11 0.048-0.11 0.041-0.213 0.082-0.108 0.041-0.219 0.082-0.103 0.041-0.206 0.069-0.11 0.041-0.11 0.034-0.103 0.034-0.219 0.069-0.103 0.034-0.329 0.103-0.103 0.034-0.329 0.103-0.11 0.027-0.11 0.034-0.11 0.027-0.11 0.034-0.329 0.082-0.11 0.034-0.219 0.055-0.11 0.021-0.329 0.082-0.11 0.021-0.11 0.027-0.219 0.041-0.11 0.027-0.658 0.123-0.117 0.021-0.439 0.055-0.219 0.041-0.11 0.014-0.117 0.021-0.11 0.014-0.11 0.021-0.549 0.069-0.117 0.014-0.11 0.007-0.219 0.027-1.001 0.062h-0.11l-0.219 0.014h-0.117l-0.219 0.014-0.103 0.007-0.11 0.007h-0.226l-0.11 0.007h-0.219l-0.11-0.046z" />
<glyph unicode="&#xe9dd;" d="M64.41 378.297v142.125h29.735v-51.769h49.325v51.769h29.822v-142.125h-29.822v62.144h-49.325v-62.144z" />
<glyph unicode="&#xe9de;" d="M488.955 411.048v84.128c0 10.73-5.682 20.658-14.934 26.095l-77.891 45.765c-11.526 6.772-25.85 6.619-37.229-0.398l-65.941-40.662c-13.587-8.378-21.859-23.198-21.859-39.16v-82.345c0-13.669 7.256-26.317 19.062-33.217l71.823-41.982c9.551-5.583 21.339-5.7 31.004-0.322l79.523 44.293c10.149 5.658 16.442 16.365 16.442 27.983v9.821z" />
</font>
</defs>
</svg>
